<mxfile host="app.diagrams.net" modified="2024-01-13T13:32:21.968Z" agent="Mozilla/5.0 (Windows NT 10.0; Win64; x64) AppleWebKit/537.36 (KHTML, like Gecko) Chrome/120.0.0.0 Safari/537.36" etag="aLIFXiqum23XSrmdAtFb" version="22.1.18" type="github">
  <diagram name="PÃ¡gina-1" id="SAO7vzHuXLInPqCyg1B3">
    <mxGraphModel dx="584" dy="363" grid="1" gridSize="10" guides="1" tooltips="1" connect="1" arrows="1" fold="1" page="1" pageScale="1" pageWidth="827" pageHeight="1169" math="0" shadow="0">
      <root>
        <mxCell id="0" />
        <mxCell id="1" parent="0" />
        <mxCell id="CkkYBKYIeVMN-7biO_7q-1" value="" style="shape=image;verticalLabelPosition=bottom;labelBackgroundColor=default;verticalAlign=top;aspect=fixed;imageAspect=0;image=data:image/jpeg,/9j/4AAQSkZJRgABAQAAAQABAAD/2wCEAAoGBxQTExYTFBQXFxYWGB8cFhgZGBwgIhkfIiEZICIfHBkfISoiGRwpIRkgIzQkJysuMTExISE2OzYwOiowMS4BCwsLDw4PHRERHTInIigwOTIyMzIwMDMyODIxMDIwNTAwMDAwMDAyMDAyMDAzMDAwMDAwMDAwMDAwMDAwMDAwMP/AABEIALcBFAMBIgACEQEDEQH/xAAcAAABBQEBAQAAAAAAAAAAAAAFAAMEBgcBAgj/xAA+EAACAQIEBAQCCAUEAgIDAAABAhEAAwQSITEFQVFhBhMicYGRBxQjMkKhscFSYtHh8HKCovEVMxbSQ2OS/8QAGQEAAwEBAQAAAAAAAAAAAAAAAAIDAQQF/8QALBEAAgICAgEDAgYCAwAAAAAAAAECEQMhEjFBEyJRBGEycYGRocEUsSNC0f/aAAwDAQACEQMRAD8Ax0xHerPjuNWMXgFt3VC4zDlVs3FQ/b2oC5LjTGZIkE8gANSZrJURI+VelOtZYEjDHOuX8S6r+4qx+DOPPhbqXbbQQfUs6MOasOYP5b1WWtj7waD01k07buA6/i2I696SUb6Bqzefpd8PYO7gbuMuWwt1EUpdQAMSSqqr/wAaywGu3KKwOxZ1M/CK1vH+L8I3AFw128r3/LS2bWYFwVcQx9ggaf3NZnwKznuhYkFq2T8mFk8N+FbD2810sWb7sGAnfufeq9x1Rav3rB1to/pjcbajlz221q5Pw1Lk4Rm8prg01/hg/HUDTpNULG4V7d97Vz7wJUnedI061HE3Jts2LOW2e3BBEHUMDpO8TyPY1Z/BVzDYgYnDYoovnW2uWrjEL5d1QYyk7yDEc9qp+HvMhkc9wRIPYjnU3C3LYuI6ypJhl3idJRtxHeqtLseKTejtnILIZxoHAMdw/wDSpWKwF3D4lbYAU3MpQZgYzAQZBiPVM1ExSwr2+efQaakMf2NGuDcKvOGwlzCtdxF5B9Vm6FezkJJIBMeXE+kxtp1rasySG/F3DDZXDpnzM1vO8K+VWJkZXZmDgqwPphRPUmm7WMe1hWtK1speZGuiCH9BOVROjJmbNproDsKLf+C4hiL4w9txiHw9rKArgJbVTGVGbKp1nXcwZ2qtYu3cC3Q2UeVcCXAGWVYlxAAPrHoMlZGo60qt9CIu/gXFW7yPZuAFHUq46qdN95qhYqz5V57Z18u4ynvlYjX3irH4C4deF7NmVNNm1zT/AKZivXibwv5d9i131XnZyuQmJJJKkH1DX9KWLSk0dWSLlBOthvwbibeLsXMLd2KkDbQ/hYfzKdZqi8Mszc+0BCpLP3CyTHygfCrXw/hC4cG8lxxAUXFZcpCswUsojYZp3NV65ZFpHths8uVLDYop0PbMYI9qTGuLlXRDg4vZcPos8bHDXTae1nXEXlzspgoWIGfKQcyjnqIHwrX/ABTwlcRYdMssBKcjI5A99qwPwzxjyrqBQIJiIH59a2/whxi9fuYkXMptWzb8lgIJDKSwbWCRp86eE1y419xSs/Q8Ltq/jcPdBBXy2WQQT/7AZnYxl0rSZqP9VXzPNCgPlKkxqRodT8Kfirgdr1TbuFEkgAbk1BvcZQfdVm7xA/PX8qACNKg6ceE62mHcEH+lE7F5XGZTI/zccjQFD1ciu0qAFSpUqAFXmumuUAKvJr1SNADVKnKVAHx9YIVgWWYOo6ipuM4Yyt9mC6sMyZQSSp20/L4Uxh7ikZW6RPTbX20+FT8HiGtj1W1uoEb0MTA29QKkEHQHQ6+xqcm09GA8plbJclI3lZI0/hqPYBmny0glj6jqNN+3blTaETqNOYGn5wf0pkaTL9hXt+ZbmV0uLM+zDtyPTSu8FxjW7ildSGzCmMDijbfMNuYOoI5g9QRU/Giyr27loAA6xM5exHUfmINLJ1oZ7VkrjvFWu3RiFaCGgqN1bcH4/tQlg1xwxaCdczHbU69+tWPjfE8LetW7a2vtRGa7tHb+ee+1EOHeHLd7DXXtjM1pkdT0DHKwyjQiSpn3qMZ1HaoneinjAsLioRqzBdOsgH3pX8Iy37logoyOwytoVIJ0I68q0ThvhRcdhTdw8jG2X9VpmAVwpAlZAysNJkxO8SKk3vCNrE4d+KuxtXb1xjkuOqp6jkDagZZPqHqjLrz0om+Lf2N2igYxM0uPxoG9jAB+Mg1G4PxV7WJtYkuxa06vMmSFIJE9CJEdCaKYXLbxKgEXFzW3ggrvlZkIbUQSV+E86D3cA63XtRBtsyENuCpIIPcRHKmi6Q8neze/DmIwQ4hfexjA2cMWt5YWfvELc0VgvqMDXv6TWEcWvi/iMReUSHu3Li6cizPPbTlXRduW9RIQkxB26j9q5cdVUhBAIgydpiY+GnxNZF1oVEjhXFmtkMDr70ZXxdcuuGuQXQRbMfdBiQPfKNe1U9VJPp6gfPqasPBvDDXbvlG+ivplgFgSQDBOkHWNAaWfBbZZZmkkw/4v46cRhbVndzdn0yPSFIK76jMVPuAeVP8AgzwnauA+bdts2sI52ncTyPw+VVLFLcwzP5gy3bZNtRMw2oJHWBrP+mlwHjL2nBDx1pafH2leUJStmm4H6OMOlxLgFx/Up8ovAjMMwkDNIE8+lXrwPg3tWHDgAm68ewhdfiDVL8MeLFv3LcEwh6c+/wDCPetPsKAJGzHN89f70+J3dkc0FFqh2K40DU0zjsWlq291zCW1LMegAk1gfjf6R8XiWZFZrNk/dtKYJH/7GGrHqNu3OrEjTsZxG7jLh8pillToeb9xP3Qeu/SNyzjruGw4z37iKBzdtT89SfasADOToxnqCR+lGOGeHvPPqZyd9/3NZKaitlIQctIvuN+lrCoctqxduAH70hAfadY+FT/Df0rYbzPtFuWw2hmGHaY1kdY20qj4XwELi5s7KOpy/pQLi3CWwtwIWDq05WGkxvpyNLHJGTpGzxyirZ9O8K4vYxC5rN1Lg/lO3uNx8anV84fR9xdrGNw7hiFNxUfurHKZ67z8K+j6cmztKlSoMOGuV00ooA5Siu0poA5SrsUqAPkK5ZY6wAR7VPsXAihWHpYEHXaQQY+e3aiTpZuIZhH5EbN2I/egl2yw0PXSoqSlpirZCuqedOhfTJG/51Mw+HBMMwUfP+1TuLcbV8NawS21KWXZku65zn+8Gg5WGgAMTCr0prTdGkXg/Drd25ldioIkV64lwu3bueUl0OCd/wCH4ioL3Sdhr1HOm7yMh10Oh+etIlLld/oGw7xHw42GCXXIe05jMs6HoRy96tfgnjtqxIt3SuvUw3MZlOhiqlwvi4uZbOIb7ImNdgeRbmRPMe9ROI8LuLifKtoUMgKubtvJ5HcGpOEpKpOn8+Da1ZfvC/jQ/W76YZLdtr15vJNwkopuMJzRrBfURtI0ov8ASVicXgRh717ycUXMBrtom3YuKqmEthghLeohyuYZTqBWTHB3cNei4mVt4mJB5gj8o2NfQHC+KYfinDjbxDKpe2FuC5AIbYOJMTmhhB0OlXjxXT7N8GGeIfENzF3/ADnS2j5FQi0pVTlmDBY66xvypPhmxV+7ctmGe5mCudWLtJg8yC2vavfGeENhcVewzSTadlViILLMq0d1g/GmcHxE2JmGXcCPxEaCdCunNdRPwrZXWuwfRM8XeE72BFrOc6XrYdGAgAndeYzDTnsQewA2LhVwTBy8qu/GPF74vALZe2bdrDkEFrjO124QQi5mEwMxPtHSqteFn6shQziDdII55Ap1I21Yj86z7BVIO+HvFQW6xun0sACDtAERFTeHcDN7FPcwlxMmbNaVyROklZjQAyJiqfg0QBlZczEaE8jRjw7xVsMGugh40QSQSdMxXT7omJ9utc2TFVuH7CpWEwtnFYs/WrepYgrnYZTMH7pGukT2FV3HYf6njnRGzizd9LaajcT3gwe80X4/w51tDiFhgUuXDnG7WXYlgCToy7gNA1jTWquAS2ZiSSZJO5J1JPeq4YurvVVQ8W7s2XwlwwLaa9ZKqLrZjJMCewrTOGPNpNQSFAJG0ga1lHhTilteFw+jKSUPPNmhQPeIPYmr39H+KNyy5/Dm0/f9q3G/cdGZXGx36RUJ4diSPwoHPcIysfyU1804zENccnmx5dOlfSf0lYC9e4dft2Cc+UHKN3UEFl7yoOnPbnWD+G+HBrjNcHpFssvvKj9/zFXbpHPGNuiJhMBppbZz0BC/8jRbgiFcQbalvL2Y5g07zlOmlSsXdswLaJmb9fc9Kd4DxWzaulWQ6DWRA/2/oJrnlJtM7IQjFo8WrmI+sm3luOkzC3Mmm80O8ZKpRHUMAXOjzmXQ6GedXAXrTG07IQrmFYgSra6MBIg8jP60M+kq2ptKEAOVwWI5CCJ+ZFLCXuRuSPtZVvDGEe/iLNm3957igdtRqfYa/CvqKsY+gnw/nvXMW49NoZLZ/nYakdwun++tnrrOA7SpUqAFSpUqAFXma9VwigDlKlNKgD5AuY9zoDA6UrLFmAmCTvXhu1eHEa0tLwBZOK+GXt2/OF1WXnIIjvpMioXFsALN3yyhGQBbhzh1Z/4rbKB6GEEAyRJE1BONulQpdivSdKsXA/EVlLXlX7QIjRgJqF5IR3v8jNgnDYYuxFrLIEwxgn2neo+LxZc+vcAAewpnEEFiyyASY177UwxqqjuzR42J1FWLBcXt5EBUG4kZWO4A5T07VWkJG1Ik66kTWTgpaYML8U4tcxF4O/4RlXoB0o/aNy5ZlbgAQSe0c+8VSwSIM60b8LXZuw2YyCAAdNRz6ip5MdJNeDYxuSQ3Zxhu4hAzBiCBIAAOw2AAqdxdCMTds2kUgsdxoBzg8vxD/qhGFssl0AaAPEx0aD+lWTxs1yyttCir5luQ6z6lPIkk7bd5p32qKJLjv5BHiEAWrVtGlE1Ma5iw0eeY9LAf3ruFtYY2WYSt1Yy/zaiZ16TUS1dRGcEZhAAzdABGhorwzhGGuiPOfzWHoRQAJ7mDlHepydR22ScnJgi0i3MyAHOzDKREDrm7Rrpzo34m4D5OGtYpHlGItBCBKwrGfZiCeoP5MY3gpwV0WrrDM4VsybZOcTsZEbdaPcQuW1uWLN0i7hyquinQgNKnMVP3tCJHI8qSeWmmto1ukVK3xC6bX1YaLcKsR1I1HsNAflTz8BxATzPLlBuwI0+Ez+VScXgrNnHXbVps1pXHlkmdCA0E8yJyz2q84fDC7Za1MZ1Kz0nSfhVHNRSrzsvjgnGwP4F4Pcx1xMPdvpbtprlCjM0cgesde+9blwvh1uxbW1bWEUaf1PU1kn0b4VreK+r3gLdwEXLLaHMUmVDjRrbLmGnMCNiK2K5cA3MToO/sOdPidpsjKTl2OVmPjnwQ1u4+JsZfJZXN23sbZIJzJ1UtBI3BJjQ6aKMYhJEiFOVjIgNp6TrM6jlVV8XcezoyWzNtkcZssqzDcToRADa6iYBp5tVsINp6MaZCHMHKY1P7CpXDeHqzCbiE7+q0TqO+bWmcYwzGal8ExaqcrfdPtofeufk0jtSV7C6YYqotsy5D6sqg6kEHntrVgwHgK7i1Tzj5VgkMYILuNwFH4R3Ovao3hHBriMRbSJtiS3sNY+JgfGtaURpTYocnyZPNk4riiJwrhtrDWls2UCW0GgH6k7knmTU2lSrpOQVKlXJoA7SrzSoA7NcNcprEvCkyAYME7T37UAN3cfbBgsJpVW7/AA++WOYA6+ls5JYHWT0gkrHRRSqfKXwbSPmt1g6yOoqbwewXdgth8QAjSi55WQQHlASArFW10MQd69YtZJGkTp/3TnAb74e/bvW7r2yjglkIzBZGaNwZE6EEHmK1SQtgedK9gyPaiXiO2v1i69olrT3Ha2zAKWUmZKgKAddgAByobhxLAEwCYnpTXqzT0jcjsaIo1prcFdevSuWeCswLZ7Yj+afhpM1L4H4fN+5lNwKJgnvUZzjVt9GNkXhvCDdBIuKpHX9aZxiCSDoQYkagx+tEfEXBrmDfLmzIfxDlM6H5b0MuYtigQjQa96IScvcnaAjRFEuGYsqyuPvLus/fHSetR7IQKWZouAiEKyGHOSdBG9M3tDKnoR117dqp3oaLphW5iFuXWuICEdpMz6W0kd53qx/SXbZzg2iQMOC25Gsb9OdVuxfV0AhluTOZWlX/ANSnSRyYa6waM8Z4mxuK9wE2vKVF6JAgg9PXJ+I6VKVqqKN+1gHEhcqLALHSdum596etu9rykFlRcLBkfm4JIE8ssj8pps4M3RmtyWBMgxEQIjnMzoe1eVEZQxIcmf8ASO/8xjboO9NS40x5Y3wUmqvr4Dz3GxOMtDEqFhQMoOsSdG6Ht0iiXjTG2cNfW15CEW8pVigl1IEBTGoBJmeY613guDwtxWN+/ce4xBVywBUxG+pOw0mIHag3iDGJjWdw/lixbJRX1zgZZAIJgkgke8VyxSlNLwkQlGqsFNiUuYlrltBbRnJVB+Eft1rRvD1yQoOu1ZZhHhwe9aR4bviFPSq51SR14Kpo0HD8LsOltlUi5h3FxNdSRrE7kMBlI220kA0bvJmfPnYQICgsB30DAHTt0PKq1wbGfaqOsg/In9QKOX70erqQPz/vXN6zitE8mNRlQxw3hJsuzlgRoAAB6lAIi5I9UaEcwZ1gxVI8S8QTG3rotC5auYQOCrgReAPqKwZAUWzGmuYd6v8AibWcgc1Gbcjky8vf9Kr/ABHCotwX1UfcNphGmXeCOfP86JZ2tsyEaZmbcNN4yDEb0/wfhNtoMGZ1k8qsWOwC2Gd0/wDW+q846rPOJ0PQipHhjw81xC7BktsZkfebsgOw/mPwBrXktXejt9qXJkS011T5eHc23y63M2VbSTq9xpgLpsd+VazgLgFtZfOI0eZzd551W14Eq4d7NtFtef6Hj1NlMj1O05mg68hOnWpf/wAcw1oDy7YAChQBtCjQxsT3p4ZGtx3/AAceSSmywWboYSKcmh2CKoqoggASYHX+pqar11wyWt9kWhvEXWXUKGEaCYJPQTpQfAccvO+V7ItAMVbO4kQJgRoxjXlv2Ne/EHHfq5WVMNt6ZnrrOmg6e/Kq/wCKePYfDjOqMXdfNViCFcE8zGaQNgIjTlRKavsyi8eaInXTlz/OvSmf71k1vxzecAZwJkbk89zMzvz6UsB4pxuii6sgSQYOhygGYkxo2x3pP8hXVGGqviUBCl1DHQAsJPsOdQOK+IsNY/8AbcUHpVW4RhRdum8168xRM17zI1jVQijQoROh2MHQms38Q4O4964ScwUAhgpkSJXTQoDI02EmJit5tqwNifxfhOTmP9JpVk1vBACLjhW/lt5gwOoaTcESDsABSpfVn9gKal62VkmCOUEz8qhXsYCIRSO5P6Dl86bu2IX96KeG+Ai+Zd8qg8tz89hTtwgnKQtIDliRuZ/b+lN1p7fRrYe39m7q8aNMie4PL2iqFxLg9yzeay4AdfkRyI7GsxfUY8mojEXD4tlEA1O4TdbOdTMTM7RGtDXssDBGtGuDYUk5Y+/GU/16f2psnFRbMYduDzMOwua5yBJMzl137fvQKzwxXu5WYgRyjWrFjLICBRsBH9/eaB4HDm7cAVogke9c+JSSdaHw45ZJcY9jF3hjvde3bbMEH3jAgbRQ/EYNg0RJ7Ue41wdsMoIYgOTO8H4zrQzyGI0zGefP8uVdMWzpyYXD2tPl9uhuzYteWv2hN3NqgBhR3Y6T7VZbOJt2bH2aFrrvDa5QEymQW6c+5ig2KuFwhY+pBBHb+Ie8QaKcTS3bs22Rw9xmylJGnpOsDo2XeklvTJRi4poieFsebLnRIAls8Rp1n3ofjsWHvtcXXM0iY+HYA9OVN49vKzWvxk/aH5EL89T8O9PYXCm+bVuyn2pnMZ0YaEEzosayfampdstLLLJFQl0i0YjD2cQLANplxLZVYN6R5cyDDCBmnLJ5e1RfEz27cLaci0ttUfD3H9QAaTkJB0O+ZZO/LSoRxF7EXFLesWEysUg+kc9N16ETzonj1sYi3aItEOHgtJhweumm2/v0qGotK2Zkx4+FxltfyVPFhSxe2jLbJ0DGY7BuY99etHeAcZyQDyrrYJ7pIYLlU5RaF1VcgQZQPvpOsb13EeGXZc+HYXrZ+6ZCXF/luW2IkjaRI78qeUoyVSOfHOnouXgTjXn3rjfgsLLN/O5yooHP8XyFWpcSfKw4OpuH9WAB/wCU/Csv4VxQYaxbwyQbj3C97KQfUrL5akjQkQZjtWiYDEh79lBqtkKCe6gk/wCdq8/6iLi/aW58tstOcecO6kfrUbD4dSWtNsf1FeMPd+2tzzX9QT+9erhy4he5/Ws5Wra8ig2zwEM7Ye6CyZg6noAdp+MezEcqtAtqOwUaCNgKh3LRzNrv/nwrziLxVI6nrOlPFxjprRjbYrRb1P0+78TUxrmdBHOoJvqEykgFhOpGnSmrF5iirqBJ1+PKtU4R0FWE7B6f50/Kpduek+9MWRoKkj51044+RWxniOCW9bNtpAPMGCDyI/odDWNeKOMXGJtvdzBGKgnVWgtqCOfLQbb1tYBNfPXFrfl3mt3ll1dluD2/hn2Me9NNXQpK4Zi5SG0C8oME8pA03qdavFtFyE9cpYroN40InpyFAmt6cwNDLk8xoTymP81p9OJMYynKFMkActtJOs+1QeNPaBh/A4h0YupYAiNVMFeamRqDryruP41be2iz5ZV8w8tVWcuwygAEDMw1mMxO9CH4oSQQT7Exr06c/wDIrzfw5MO3p3IC9d9YEzzMTE1sOUe2KcxGOW0xSXBG4kaHvpvSofcdZ0X8z/8AWlTUBWsfbIbIDmnYDX8qmcIu3rJ+60VDwmNNt8w+9G9Wvgd8FgzwdBpp/hq+aXGG1ZRRjxuTD/BfF9u2n2pj33+VQuP4O1xK6t1GNsqpWYEt0n/OdEOJcXwgt5bihj/DANV3h7F7jCwSludBP6dq87FF3yjaf8Bhwyyy4xA/GvDV2y41DqdA4ER/qHL86tPgzhNmPUfVzJ/YToKkjhS3fS9wz3NCfIezdFtJaT6Y1mrZJTlCr/Y6c/0OTDHm2mvsFvEvDlsOFDgq4kSQPfXtpVF4Zfa24gwVJ1/Krtxq4bJQ4lA6suwYSD0kg1Q8YVzSsDWSJ5du9X+mblBWNhh6UVlT78FuuW2x9tbHmCVAykzpE7Ab7kfGmMf4dxGFUKSro4lXX85G60A4dxB7ZBQkVfvDXFEhfrPqG5HT4660snkjKvBbDlyfUZ7UdV4+P/Sg2cC7K1wAsQToP4YMkdT2qZw6y6MLnlEFAdW2LRIOpE6kad+VWDivF0s3s1pEggmCNOYBj8/epFprt+yHtW4KeonQyNjCkflVZTbjobP9E424ba7KVgAL1z7UEsdy2kfDTX8u1WDFrYw142VyjzkQXLik+lCoBVY2LRLNvqaa8VWFRLfryKNbVk7zAzMW/Ahgafpyq1zFtnzEkkczTJOavo4ucFDjJVL5+xbbGCfBY2bEtbBGXNBOUqrENG0EkCRrFCMdjnd3YjQseesTsoO40jQcqMYLH3Dds37xNxXtsrowcHKs+oGIeDEGf1qDxvDWrVwqlxXV4cZWkrmJlfef+96imue+6OfLx5e3r5Gnvsx8wKwAgIrZiAYA0+W2nLfavBxrrDm4xM6wAI15GZPWYGvWvXDryqrB0ttO2eZ/IgR3B096jNhpzESANuuscuYH9Kale0SCrXLuVMQ4zZWVluZ1IPMBl+8pFW3wfi4VmbdUb5kAfq5qmcJtAh0DmNyuwYAjWCd9OU1aeCiLSfzlf+Tz/SufL1RXGzQGvhcRaH+kf8RUjjnpuKw5a/r3oRj7sYhP9Q/QUY8Qp6Vao83xdor5J+LAKi4Dodx/Shdy9Op0A9v60/w7FZsOAdeXtFBcZdIJ105Ctlkg6bRiTPGOBYNrsNo3rnCsa9zKoYjIORjTud+Xx9pqMuJImY+QqDaa4HdbErmgsw356LP3NySd9RERrNKMpe0ok3ov+DRgBLE/D+s0SsE8v8+IrP7PDCdbmp6sS5PuWJonasKuwg9RofgRqK7MacTXi+5cWvgAltABJmvn/wAS43zb1y65ALuWXbWSTHwneti4Rx22bgw924vmEfZ5iAbgOhH8zD5kHnrWH8QKm4SfuK75OuXM2WD35/lVW2znkuLoiXWzMP4SR0n4cgeVO4nGgLlAI5QSSZmdZ3016e9ejYt675l3KyQdDov+DnvTYS3lkBXJkerTTTlJ7QdCI70aYljdvib2h6rYEzrrqeh10/z4PtfuvDu9shNR6xmjTQqCCYHvEH2puyqsjqJkaWxGYBgdtj2E96833NnW7YDMwmLgYAdMqqRO0zrvWtK+tmEq1xOJBjcx93b5UqEW7xj7ppUemjTuNa0barlJC7HQb9SN6h2eIsugmKa841O4XxG2rfaWww6j+nOqyjS6s2UmyDdusxnU1MwXEmtmQYqyXODDELmslMvvEfCq5jOGhbvlBw0RmI2BPKpxyRl7R8WaWN3EJ4bjzb5oo1wHilt2BLQY32qSOB2XwRSBIGYHmCKzv6yVPpqKUcyajqjozfXZMsOD6Njx7WhYe9CuyqWAYiDAmJO01QVxy4twBYtW5PIa/E/2oXg+KXH9Dt6OY6+/amMPiyjkjSSdf26U2DA8dpifTZEppT6LD4l8PmzatugC6jMANwdiRz336U5g+B3LlsPav22YCWQmI9mmNuunepfh+0uOLWbt1oy6QdZ0iJ5CNqG+J+FvZY2sih0gC4kKXU6CQDJnbXbWh5E5cTo+pzQx5f8Aifjda2BeJi6lwLcMsehBHSJHMbVZOC8fOcWiSlogK4mMw0MHtzoZxNLttLSXbC21EFGEHlB/3HQmp/AOD2bxFtvTcWGzGSGkA5Spjb+tNklHhf8Aoh/kZOLp99/J6+kDhyD7dGBLsAukjKABudzPL+uo3AcIF2He25zIctsaG4w0GRoiDIJjtRv6Rb91Dh7F5g6KCwATKOS6anSD2r1gLDLkt2Lpe4FF20pfRdwynv0+GtLGcliTF9KWROSpV3sdW+6LasXUbDXbACr6QyNnAMt+GNOvXnsz9IeEtALeXIzAAOIgEAxK9QSTOvepeFxq3W865fzZwGuW3Qm3mQHKk7rpqInUk67VPsrZxuBZxCO9pvR0ZdxO5EifY1BXGaf7/qSnBxbjJbRUfD95Gz3CwVkliP4kA5g6aEnUe1EL9tf/AGyHBIOmUCP9ok6T7RVXwl57MOMykEgadYDTI2gDepN62czMItrmmBMKTrAmY5xB+HOumcLlyTok0O4bFIbpCgEBScw67adRB/znesFAfD2/5k/L/qqjg+Fu19UVDmcCeZJJ1mB6Qd+mo1rSsLwS3bi9fZlKaiCIB70mS/CL44NrR74pdH1hT/OP83onxvxFhsvlB8z/AMuoHudvlNVfjXiIA+TaVSWnWPjmY1C4ZhlYaaxuTuaX01Wy6x7LLw3iqocjE66xG1LiIJcFdQarmMu5SXbQzvRrhPEAyanTr/akligynpI9Lgix1IAmiNiwqiBTJ69aD4zxbZtYj6u2bMIzEDQSJ/SPnVMeNR/CgUPgsdQcfjgo1NLE3jkzKCywDmGogiRqNBvVX4njCQzNookmtcvCGSQK4rxLz8VbX8OHm457LDAfEgD4ihl9vNTOWAJeFk6ZYzExrGun7VI8PYuxcN1WsOVcEXbqFi6gnMDGqbqNI5VIteHy9kPmt20X8T3IzQ3QSQwG+g15c6ZqmcmSMmwBcUWzkzBIAYvGYEkGBEf9c6bS19YaLaEOOYzEnX+Ud94irPwrgeAT1Yi9dvtvktjKs99Z+ZG+1Pcfe4iD6mpFlhIW3ZhgZGj5ZmRqG506kvBPhXbK8OHm3/77vltBzBQxLak6lSAeWxotheLYdldsTdu3LbQUtg5QSBGsNI9/TO9V25hb7Am5aYGdWcOJHQgj86ii7APpXWY3BGvLlWuHJ7Dkl0XZeP2gSLWCw6rO1yC0wNScp5RzpVQDfPUUq30vuHJjNcmvYikYqwgQ4RxE2zEmDuKkvwsZs9t4H3iW5c4PWhCkVJtYiNjSSjfXZlE/Gceura8oEQ4gsOnOPnQO0JYVLxuHYwwErHy61DXSshBRXtQJDqKQuYTA0M9eY704ozxIP+fuabzZjpz1I7/3/pXk4g6gCOXPTr8xp7U9DJ0GsFjlw5V7T5kYSuvqQ81YdR12Nehxl7+J891JCwNBOUCd/mT8aBxoNNhy6dfeiduyUCIAw8wSDIytvI0Ex11/WoyxRtvy9BxvosnjLxLaxGHCiAysogSCN5MRtGmvWo2DHmYY4kMUu2VIJ3DgHRWGkGNQex30qtYpQSJJLE8hpr0Jif8AurLhEvWuH3iQq2zbVhpJzMRHqO2hmORpFijCKivkrBaa8ULjobGDC/bK7Qy+WAcy/dliZiNhrB331hzwzwhbeLdLlwTZ3AJAbTaN51oH4RxOTEW2Y5ZOhkj4+1FsVwXE/W2u+ZbDvcOXKxadgNN4iN6SapPEnWtDLjKKjBbsIeKOIWhb8jD58OSxZ7ZUj06QZOusb9KheD+KtaF/DjcoXtc/UokiPxZl26kDrUrjPCsTiLlu9c8tSqi3cZjkVQJkGdz6jtNRrPDMJhzn+tu9wfd8hTAOu76/tRCMeHHz/ZNxk5W/5GMBg/MuANeFl1AcG7swiRqTIO/U/Gp3GrmHxN60pBtkoBdK5YYgsJGm4G1Dr+PsKqzYa87ES7OFmABEqA0baE/pRZEt4gKThszLmzLavQUHpiNYK6kkidtt4rdJaOnHxcVBK/LHjxJsHd8uzN4BVyFdobRQxmA3pjfWPcCFxHxXicQxsNFt5ghjovLU60FxOOazdcLbNuCFZPMLgxqJkerrP9aIPi7eJvK9rDkXYAyqPSxEyxSN5O/ahxq3RSTi4XF0/j7HMM72ZDkNcJ1YajKDsJA33+VWzguMAhhEe/8Amnf4bjWpXLTKSLgKOp9QcRHuDyimrPFRJVdLexj8X9F/WsasWLS0y2obeMvBHuqlsHpOYjrqIX9fbc7i8J5MoI9PQ6HuOorNsbhXzNiLHrtj1vDAG3G+YEjSek1I/wDmOIFxVcj0HWCCPiQSGqShNvTtf6KQnGTq9l74fdYzPLYVSvHmDm6MUsEQvmIT00BjmIgEdu9WEeKbMG4sLoMwManXYcxpVL8S4u9dY3FRltvMDKYIjXKTuNzPLtFUxxdi5/bafZaPDHiW+TlAUBlhs7ALqOc9uVOeJOHNaRBfm4tycosssNGsFmIM84is9wruoXK25Ok7Hv0+NXThS41lWUN1UBgIwZlmNcp1cabCevKoyxOErXRxLI4po9YHi+HVlCpcS2NkCBS3xJOboTXOMX7DtmsW2JXQWnuSN5LQFz/CY11ojjuE2sTaUONCMykSCpI5SduUH9qze6bti41ts1t1MESRt+oPI08Ic9phK/0LecSLQBa1lkTJQgH2zcqfHHJGjf0qjtea4QCSxOgJPXvUnhWRHBcPpyAkH3Gh/Wsl9Je+Tsi4b7LS15W3Cn3E15u4Sw0lkUnnGn5rFRVbDttcyMTABzKP+Q3250/c4ZdUSrBv85dahLFkj/2ZnCS2ge/AUJJW4AJ0DKSR8edKnSzjSKVb6uX5F5yKrSpE1ya9QqImkGpVwUAT8PeLLkBhgZX9xUB5mCII3rgap2HzX4tnVvwnmex60vQDVq0CwCxrzPKrzwnwPhrqKz3WDHfVQI+WlVy5wB0QXArbwylf+QPTkZruGxznKDIQnmd4/auXLKUl7JBbQXH0f3Ll255N1WtAyjOSC0id4j+u9C8O3kO1i6DlVjnQ6lCNJHWRqQNx7VauD8aIGW3Jbcx0/bnVRxuJ8+9evFoLuscpGgjfpv7GlwznNtT6oeEjxiz9qLYIK5wQRqCNwQeYg1beK2B/411OzZIA3MZDA/8A5NU5beW4rsPS7ErB+7BB1G2oNWrHXHv2UtKrBBESROkiAPbn+XKqyS1RbDByuMVbZXbfDkJUnMXP4V6AABRHTr7U6cW+Gu2bqFQSpIWcxWGP3id2P6RXjF3WwmKHpbSPSTqeusDTv2+TvG+IJeuBypyAwTpCkheZA0mZJrfdzWtC8njlaVNELiXF7t03JOZbjBuvqAA06GBUG0QSNee40PY/P5VPvJ5aMr52MAiBAB0HMa6n8J6HnFRLWRCSfLM9WYkEgbAQDE7wRM1RVXRJycm2x7GiVRQZIU6k+53qT4cuYq0wuWkYaaEiBlI310y969WBbtEXFZLigAMCMpDNM5QvYbzO/WiONs21tAWhcvNlMJAZUmQWgCYyk6bA0ltKl/JfDHIvdHwCMRw6+jNcvWyqkkTIIJE6CDrEH8u1XDwvwjCvhzcUlLttSwYOZMawVJhvhBqs43ji3bSIyDMi5VYdOnSNahWcT5aFlukZhomWSdxvOg7mhqUlsvGWOEmp7TXZb+G+IMPeuO2KthmUQjDeRMDXTc0B4mnn3WazaCKf4RC+/TXeBU3DcWwd3CXFuWUt3rYm06CCx6NH3ge/WpXA/Eds22S5DAjQGI+RqMLjen+pn08FkTV/kVnE2xaDDOzM6lTkJAA9hqfj8qhYq7mfkDt6QANI6RJ6mp1xHt3GuKp8vkRyHw1+dGMY9jEYfUjzFGhroujIYOV09rwc8K27GRmJBuLqMwHxjvQbxS7tfLtJBUZOwAjblqCaj/VrlsyCCBzBj8t6LYPhN+4v1goTbKlVMHWDGmnY1jai+VmZckXFRSpg68GQIWUzlB1A9QOsgjf31qzeHOIX7ktZtO62lm5kj09DJ0meW510oSMGLRFm7ot1Ve038BMiPjOvsK6i4nClmttcVRAcgEAZoIDA6DNAid4qM6np/ocT72XrA4xbltWEmRuRGvMEcmr0YJBgZh90kCR89vhQ/gPGxiEEn7RR610E7iV6gx8KIXbXMGek68q5ncXTLw60D8VwGw7ZvLQNvmVVmesH0kz1FCPEHBQn21sEj/8AIuhj+ZY1jqP71Zj/AJpXh7RYEExIIkaVSOVpjSjaoz67hlcbET70V8OFlDWXdvLMFfVGUjp2I/QVcOJY83rHkYgDOF9DREsNwD+YqiPmAkHSux1OJz24ss31IfwOe8HWlVR/8veGguEDpNdqXoDco/BXyK5FPXkymm81dNiHk1yvU0iK0DgqThLuVgehmo4WuMOdYBseA41YfD+ZoNNZ5ac6r/B+FWbjFsgIeYB2AJmADVV4ZcNy01sMQRqB17VK4Dx44dofVRXn5PppRcnB9+AaotmNwWEwhCuMnmA7ufUIIIE8tdvaq5dwGFuX0SwtwWyAczNIMyIWAW121jWaJeMuIjEWbTR90kiRuCvLtr+lCOF31Yi0qKouIFaOkqRBGoaVmd9aphTcLd2dWJeo1GkSAECvh3cs1ojllDqoZlUNrBkxB6RRPCccFpcxQgLoXKnLptDftQ/jHDhhL9lzJt3NdSZnudSRXvjN5fq9+xOxVkgAc9AI5CNfjTuO0XjKX08m1QJ8TcZ+u4hGAA+6ogb6jb/N6i4m6Q1ySINxpUzqsnXTY/KonCZ81BzVsw/2gn9q7bxB15yQSfnv7zXRVaOPJNzk5PthPhNo3Sto3QoAhdyIOonarNdx+HCph7gV2B9TDkNoB31qlgZrihTBjU8vkPlT64C5czOrSVBJ5aDmKnOHLVnTCTWNwitvsJWODYRsX5ZuOtn3BM/6o2+E96bON+pYphZdigOhkSR7gftQRUbKXzQedF8G+FbDsLq/a/hfc/2pJRa/E211X9nHyfQ5jnsv5l8CHdpjSB1IEaSdfeg7EbkZpB3J076b1MTh6tbRlY+rTXYHTQ/Oh9wEEg7jQ1XGqVDSTitk+9h7HkZgT5kiRPfkKjWkUDck684+dS/C/BXxd8WVGmhuOdkQfeZjy0271D4nhRbuPbVw4UkB1MhwPxDoDvHLatUadWZHWwg2NHp9BCMoFzq0dhsB058+0bGFbVxQJKESVmDudjUPDXGB+8YGupn8q9cQuMXGeZgEyI0MEactKzjTDm/BMxb2/MJtA+WfugnWCBIkyd5FaR4XS/awSJnR7bDMEj8DEsSO5mfz3rLnuhmYqIUscgPJZ0Hyqz8K8Vi0q2cRba5bVAEa2wDJvproQOhqGaE2komRavYc+lDhoNi3fSPs3gkcgwjT2YL86vPgvA2cVhbd66gJv4ZLd1fwsB2/iBkfLoKzjHKuJsXfJxC3FyF8jEh/T6oKaidNxV5+jvEPhcGFvr5S2recknYas2bod9KldRSa3YzSsyXEo2GxF0WyfsLrW5/0sV17HLV9wuNR0W4hEMJjNHfXXlMbbz3qn+HLoxV3Eu4A81mcgiQM7MxH50W4ZgPKBt5iYbOugOZSI5HWIp8sVdDQQe+sDnMjkf2NesOi3XNpGUOBOVtCfY7T71CGIVBqYWB+E8+/Mfpp1oRxiwTdS7adlcwCQCdJGuVZLDfUdRvUeD8DS5LoNY3CK4hhoDI5QY0gxoeWvtVY4bh3uW3uBYgFgSQyuBIhI9U6dI9t6LcNxoxdnIyNadfTe9RBJ5ROq85H+EngrPlhbYEKBCweQ777R8qZTlFV5ErkyiXbUmYpVd/qk6wuv8oH5Uqr6/2M9JmY3EkRzqIVrtKupdkxRSNKlTAKaQNKlQA7g72S4GHI0cwSLZxCsdVZcy/Pp8KVKp5vwgx7xJjbl77caAGF15AwfzoN9ZKutwafsRSpUuJJRpFMUmpKifxTjdy8EDHMQ3oknQaUzxG87J9o2Ygx8o+dKlTeUWzSbk7JHB8Tat22d0zGIA99KcwOEtPhbrkAOCOXKYMGKVKtfR144ptJ/ANTB+lmB+6J/wANOLibmGZrbRqNY1kHauUqSLbZw45tSdELDwz66KW19udPrYt+Ux1mZB7TSpVSWqJS7HuB4R7lxLWfKrHMDuNAdcvXlTWDsm6x9izHpGpPfelSpW3b/JGrdWOWcbeW1cS0zLaJ9cEDN0DcyO23zNNYvFrct2/TFxcwdv4xMrPcailSpvJvh/l/ZFAp9cJpSpUxM9JZy/GveJcZjlmOU0qVKvxMCOGg6aEbRpHxqy8L8cYhFNq+fPtMIIaM0dM34h1Db9RSpVskn2ah7wjhgty4imRcUNa7pJgmRvB1BijVxw5hWAZEJ+6djuA2mkqDSpVy5fxFofhOvYu2WcM6s5AYSvptggjYQXbQrG2kyagY7hmKLG9bukuN8xAJGo0gALB2GunPTXtKkRSLakEMPxjFsq+fZttpDsSskciYkkjXXenPrA2zAkdARsOc7/5tSpUnFC5HbbGBeD65ojSMu3+TSpUqQjbP/9k=;" parent="1" vertex="1">
          <mxGeometry x="50" y="15" width="324.27" height="215" as="geometry" />
        </mxCell>
        <mxCell id="CkkYBKYIeVMN-7biO_7q-2" value="" style="shape=image;verticalLabelPosition=bottom;labelBackgroundColor=default;verticalAlign=top;aspect=fixed;imageAspect=0;image=data:image/jpeg,/9j/4AAQSkZJRgABAQAAAQABAAD/2wCEAAkGBxQUExYUFBQWFxYYGiAcGRgZGR8cIRseHBsYHBkeGRkeISkhHhsoHhsbIjIiJiosLy8vGSA1OjUuOSkuLywBCgoKDg0OHBAQHDAnISYwMC4wLjAuLjAuLi43MS4uLi4uLjAuLi4uLi4uMC4uMC4uLjAuLi4uLi4uLi4uLi4uLv/AABEIAKgBLAMBIgACEQEDEQH/xAAbAAACAgMBAAAAAAAAAAAAAAAEBQIDAAEGB//EAD4QAAIBAwMCBAQDBgQGAgMAAAECEQADIQQSMUFRBSJhcRMygZEGobEjQlLB0fAHFGLhM0NygpLxFdIkg6L/xAAaAQACAwEBAAAAAAAAAAAAAAABAgADBAUG/8QANBEAAgIBAwIDBgUDBQEAAAAAAAECEQMSITEEQVFhcQUTIpGhwRQygbHwFULRI0NS4fEz/9oADAMBAAIRAxEAPwD1cVIV49a8XIjbdf8A8m/So3vFnbBvMwP7rGfyNalJMzODW57MCO1SmvHbGvuLkMQft+lXt4vdnc11yZHBI4BA/U1KRKZ64GqQevMNJ+K7yKFV5A43CT9zmiLP4uvqeQ4jgxj9DShqSPSN9SUg15drv8TWtHabSlonB69Ac0hs/wCKGsNzc2zZOUVRHpLGTVblFbBWo9y+HWjbPauF0n4+DWwxtQx6B5X7xM/SrE/HDTmyI9Ln9Vo0G/I7Uqa1XMaf8a2SYZXX1MH9DNF2/wAVaY83Nv8A1KR+YEUaA2Pd1bml+n8Ssv8AJcRvZh+lFg0aBqLgPapbPah9xqQuUtMZSRcE9K38IVULtb+JQpjaok/gVn+XqIuVv4lTcnwmjYNRNo1Lf61rd60dwVEgUNZFWB/Wt7qlk0oqmsmrxFb2ihqDoZRNZNX/AAxWjaFTUiaWVTWpqz4Y71Xd2KJZwo7kwPuaNolMyayazcm3cHXb3kR96Du+KadedRZH/wCxf61LQNwytzQVjxKy5hL1pj2Dqf51vUeI2bZh7ttT2LgflNTYlsMJrRpfqfGtPbT4jXrYTvuB+0TNc7rP8RtMv/DW5cPttH3OfyqNpBVs7E1A15nrf8SLz4tWkt+plyf0H5Um1H4w1ZM/HceiqAPoIpXlig6WJNAouLM7Txt/s1B9P8JpnynEdjV6FQPlVexwT9DNU6m6Il5Ikf6Z6Yn+VYVmHxx1yUUt2R/zI5kgc1N7oiZJqWg0StZvOqpKkqQTLDdkFZMmCc9BFFrZYXdlrbuEgFiIBmcTKsMc5Bqz31GyPs6U3UWn9hdb1uev3qy/rtgkn2nrRLaEhgXtkGM7fMJz+8pj1yelQTTW4LPt2bhnkjCklVJEn3qLM34lUujnGVS2Ob1t8M24TJ5kg1pSUG4SOJ9fcdq6m/ZtkAQgziQB07Y6c1QPD7JzsEE98frVfv0VTxuL249BH4f4hcBhCcnI/PArpdPqmOOSemP5VQultWpZxbtARl2g9BxM/lRiXkBhQSGHzwc9cLIkTjn+lOs9dtgLE299vXYpbUyPnUySPK/VeRjtIqIb1b/ypX4VEsIMC7dHMZJBGJHr9qZFrY6DsfOfzgkCmfVNbblcopOi9dRAz06k/wA6n/8ALuIC3COwDHHsAaBvXLYBKquDztZgD2kCJrE1K43KAeuH5+1H8TLmmD9Bva/EWoB/493/AMmj88UdY/F2oXPxSc/vQf1rmbmptEECCY7Hn0/vpUbVxZXdC+X945JxkD7/AJ0PxUvBg0rwOztfjq6OW++36YIq6z+ObwPmKfVP6GuIu6m1GNre7qB9iayyi7CzBQ3RVYfnBzTLqmlugOCfY9Jsfj5I86Se6yPyIP60Xa/Hun6h1+x/pXk+luAkhgfcQfat+JB0S4VAJCsQwaCpAPKmcim/E700T3Z7Ja/GmlJjewxMlDHt70Un4m0p4vp+Y/lXjl6+jPMRvVXHQedQ3TAAJI+lRVlPr7Hd+QzSS6tJ00Sj2e3+INM3/Pt8xlo+09KvbxjTgbjftAd96/1rxMbe/HOf6xWrgUc8cTP+0UPxi8CUel+M/j+zb8thfikcsZVR+Un6Y9aQXPx9qGyGRPQJP6ya5MuhUgg8g/UAx+vatoqHIkR6Ur6peY6aOx03+I19fmW088cg+2Oa1e/xI1BbyW7aiOILfnIrkdi9/wDatALEg0v4lB1I6S/+OdY+dyqOyov5EyaQ+I+IPcO66zue7NMe3QUKbXAPBG7PrxGKg6qDBn2PbrReZWHVXY0Lw43COYn844+tTLdoqm5o7cT9eKpGyQs5jJGOn0HPftUWWMh4KU/ypsJLjv8Aesk9K2mlAwYH/ViT1ipXdC0EwwGPb1zND3iLHhypanF16Mr24nn+8/rUQvoKJtaLygAkcmSR16z1EAVBtKoMfEkxOMjkDnvkUvvY+IFjnV15gzhp5ie1QO6rbengyXJ/l9qG/wAuP4m/8DU95Ep1oyzpWzAIOPNtVT7xMEfSrFuLBh0JHG5ufqJIzVVwWncDzE9SCZ+4xEx96pOm0/lJDr0CCADBjzMFkKZ7xVXPN/IrRbb8RYSqC3PMwWJyOxmM9PSnHgEX0u7mQPbG4ArcDOP4VG+D9qT29Uz+Wwyg7fMqAmMk+U7QvGJY1eo1KsG2gn92WA9h1gHJJ9KlK/iOt/U3GOmEaXkdKXtjSm7dK8lfhiVcEr5T5iRExXJu5uB7gdhM+XymYHUwT689aO8fR7tptoDNI8oYdO0nn86X+EeH3Ldubq/NkLuExA+k8iKOSCjxJMv6X2jBSvLdVzy7J+Gm4Qdu65EkhZwJx/WiLDOPOqcnPQn2LGq9NrgNxtK1t480ZY4kTAP2Pehm8Sd9pLYHzcZ7Ha0QJHODQ0vwMXUddracFTXelZrxxLht3pXAAPTyyFxzxj7npRltHME3cECRJn6TA69+1JNQ5a3c/aQsDJzvwRAAEzR2luB1X4dprjBRljAJgSQAcGYGTVrg9O9GFty3kR0hVfiShYLdefqMenPvRf8A8mSCU8pz5do9iDAieftQ2i8Puu91XcWxuEJAHm2zgDnygGV7UbpLSW03oN28g75PXiQvy/fvSyUb8WSVvkG0d646OwDFmaAO0wWnssQPqaNTQ7BLec8FQY9oEdjU/wDJX0tPqABtLSCLgyMKCFOSOs9Rml13W7tzBnwJIgGcY9THf3qNNukGcJRrUqCtVq2WI3bTI2zH2/SBS+7q2A6g7MT6Qes5rLmqkEZ9NyrPHT09/SoeGK1yBtBXqCvt2oxgoq2SMNTC/ALbXYdwSM7cTJ9fQU11t4zBmB/fHSibVjYMMEWMRAjrzEd6Ca6xc2wXdiJjkQTkiJgTNUXrnYrV8Ci4Dlgflhfoc/aa3qNQfhXIgSjCJGRBnHOf51O00fFUqfm2xGZ2rAjmZPahdJZK7xd29dwby9J2ndEYjHNaNNl2WO6aGOib44uWy0G0F+G3YMiyvGRILf8Ace9RQXUEgqfZhOJxBz/ZoLTaYfHuhXO0fDIYDldnfgHkHmCD2punhFofKDI7PMTwMkg8jpVeRqMqfl+xSwYeJttIbPcOsgfrJ+tE6W4HnzbMcKGj3IP0oTxzwx0UuBvE7iMn3OM/3NJ715j5VEyRIH6YzHPagoxkriSjpwGzDhyOA3T2Hfmgrl8qxFyyMniCpMDmePrQFrXhZKySSRAM57ATz1+lNbesPysCQeZAInHSOMxOaVpxBXYy7cUmfiY/1QQPZpmf61q08qACO2JXuQBwDx68VVqrdm5EkpGFKqQZPoMc9SOpq1dA8yGQgDpOTxMcA0NSSLumUffR1Pa1ZAaqMPbDFVAUq8nB6hlg4P0oix4sV2gKwDGdpFuOo+bd5TjoRSnxEkDMiCJ6R7mhP8sLqoHbAkx1OSRHp/WjB6luz1HWyw9MtaSfy/wddts3HFveBwC7BgJY4ByZ6fL3oPUWbPxNu5SSIHlbnnOJnNJ/DNKgaVV8HLTCiCOhGaJ/DVn4OqW+t1SQSQV3E9YJBEc4gmnSVtN7HNn7RxuCcI1Lvx8+A5fCQIdXLQwn4YyCcAeYH7x2oldTsDIDJk7hcJMNOdwbG7vAFEXfFLmmS69ohviYYvDABj5iARiTXM/51WXzQw6tkiTgEEZ+1Bwlfl5Feb2jJx+B03zt/EN9T4hcJddxhoKswnZtP7RYEgSvH1oY3FMkXFODmMD6E9/0ockz/wA5ABODK4/M4qq7dNwEgz2LWwCI4ySJ96FW7Odmzyyab5Sq/EMS7KyCh7gY/MA5rW3dnac+p/8ArVGnMrgWpb3xHPygAH69aGGp6BBjnaTzzn1zU02Z6KdJ4RcMQjqATLGA044HSY5NGJo7dr/iK7MQfKJAYLmWMZIHr2qV/wAYc5RR8HILRifQ8/bjFDafxJiu9R5N3nlpiTM5mR7ZgRVnxy5JY2t6uwqhQvl65wAIJhhifbuPWlur1YZHK7kDEdedp6D5px1iqdYoVlvGVQjaWKk87o2gny9Y49KrN4lVdIgnmS7mDjA+SQOpoxxpbkMXXgjcr8GJCQdpGTAyWmATVy+InCgEpxkGVB5OcTP5DPFKtTbIuHbbw/BmCD25jk+3FNfDfARcG93dgeQojrB3GYJ9BmBTS0xVsNFOp1bCPLncAxKgysT5mBgECPeqNRcmMAhhkcHqIB6DH/8AR9Ke3/DbCt8QrcBnaIcmeACYyOMAmjU0FqINrAO6GzB6QSMcflSLKq2REhR4doibbsyKVIwDGRtaYgSPfAxM078ND/5e0EdQSgORMckQP3VHrMDM0t12sll2ZBDCFAEfJMg4LATUvwp4Y1+FG7ZtBu3Z+UCP2aAZzg/nxFGnKNvYux4pT2XI+8F8MNwXbhDwXVlaUlh8MBiAxEKQMcHr1qrVeDOLVtJIVyFaMQNpO3dA5Iies4ih/FtXZS7cRLTbFR9sQpDbUKsZBMCTietHWdZpozYYJgfIpzz87Fm4zgjg0sZJSuTo7v8ATouCeOLl8iB0/wAS2q23D25ECei/KOCYHHfFQtfgy80BUCyYAJbAMyZ2jHoe9E+F39EPiBnKLv8ALFp3IXasw5nb5i3A60D4jdueW4rult52AXWmFMebIkzTSyRgrW4+LoMnUy05FXZXa38EP7n+GqQZu9OqGJ/8hihn/B12wq7Wt3FjJYMuYyCoLdOv6Uo8OvXi6ql26Sx4NxoJ/wBXmiK6TQayzduH4t02lRIKm/ck3DMkeb5QoEd93pQWWE+fqTP7JeFVSfpd+Qj1vh+ow3w7ZJxC3GBg91MA+xqjRvesvKJkrs54zOYyOO1dLcNncQ14XFPFxL9zcvurNB/vNA3ksglTdLDo4Nw/+SMCCPYj3pv9OK7GbF0E1kUoxa86br6CDU6VhcuXGe2txrm4Q0rJRQJMCBII45Vu0nWr8Ou3gQ//AB7aTIOLsYj0bpNH66wyI1xLrXFtgwwWADE7SCsxgY/nTH/494DG/uUgjy7Z4nPl9KaOS622Bm6GnJykrW9bp+Jw1jR7rjqhLIcwQwIUcAtBEe3Jng05sXLQUBCgAAESU29OSsdqCXxG4TdtBjsW63JMMZ5gY9fqaX3EKuW2M2weUkkrnBx7/rxVU0pza8DLm6ZYsMcjVqV73XokdJbLljtHxABIi6CSQZIInk+1B+IaQOSRbNtpMvwJwBvXmD39Oc5TBnBUsitmE2sSOpJYGB9+PtT7Ra4KsP8As+QIJk8Ef7ccelVuOh3+xjvE/FfJnK6pYbYclYmJgAjG1eszzW0vlT5rhG7hGzGP3oMgeldfqNOHI8qFiAQxRZ7ETyTmeR70pt+D3mbadJjqwLKPrvJBH+9WwyqQYYHP8r+jEy6tkhid5bCC2IGdp7YMA/SKb2fF/hpIR2ng8x3EgARgj6VB/BWX/h3FtkfOlxgCZ5j06YGe9GXfw/a8ou6ldoGVt2mIP/dIHfmhJ45Lc1v2X1OqlG/Qhb8cZgD8MDqdxJBHHlHt39avt3UKjbaG04kDbHE8nOSKu0+k0tvIF+4Y6sFH0CgnqaIta63bEW9PbX1dmuE/c8+tUvQuPuaI+xeqa+KkvURajwt3IZCJmQjH1ECJg+hkRWj4XqIjaQeZJBnjAzMHbyZ4ptqPxOyYFy2h6KigdSOQsjPWhLXiTXtxLkgQOWwczls/XFNrko39gr2NqkoRmnJ/L9WB6DV3FLLteRgluSCcHaREdB3mrNE+oMlUcA5UEAbuwA6d5NR1usbdAZsR1gmI4J5yTW21OoLgGR0JESAekDk459qd3V0tzj5IuEnB9nXyC7DFNzPaWI5Uev8AFye/HM1DV2Ld6YZl+kjMjLMPyFDf5o2WBBd1kyCD5RHbuD37VY3iJUlHBEZUNkmR/Z+vpSaZXa/n6FZB9JctjcAXEAApA29pYment61sa9oGAf8AvmMnE7qjd8RiWAORgSVnI2nJjnOOhzQ6+KWjJYISTJzMekx+mKsUZPlWAE1d1LiDZvIEyuQpA6j/AFAnj0PHFVJfQIwlIKgNuJDGYJ7DntR2m8DtLccNeBRBKlWKMCf3QTIjnr1phb01i3AFs3C2UbmZH8R9iMngcYp3kitlbG2OeI42ZJMjzzKicbekcH3ojReGX2lhKq2MsV2xjIBggfpTi5ZsW2+Ggy0yZyJALSxzGBGIqWstWwwPxjgAhHAzgZBwDxP0oPK+yJZO3oQgB+Gjt1dsKDxABkc9hn7Vu/r9+9bZVCkb5ldsfOAYkGev9gS5vYqCHfJgr8swZA5zM5n+VB6t2Du1vYruBvkyRJMmIOzvjsIpFjt/FyAZnxdjA8wjyAmQGP7p3RiYY9jmqNRqiLgQFSAdj/ukMc8R8vB+9AXPERK/FYb7ZK4Qyechp2nnHpNSv+IbrhZhtRx/CGOVjzniDPHPHEVZHHXYlBmk0ha5v+IRYLxuxhoJaJMTjHQTXceCaqxb0tuybm0geb4bBcmck9Sf51xV5ztto23yQqkKBtG04UwCFJzFBjVupKwDB5zMT9vyqp5G38J67o/Z8MeO52264rirOp1tlLl9j8UMksCWKkkG1ZC5xPDD6e9b/wAoIguhHofpwCa5hbrMW2yDOOD+6IHA/s1G9duK7qGBCsVnaOhIpJtvwNvT48cFa1Ld7X4P1HaaEzcmILeXmT5V9I5nmp2vDLzfLb3exn74pA1+6BII+1P/AADxW9Yl7dzTy65FzEbSYHzA7j9oNLGGt06L8uf3EG4t358bu/Mx9FfRhNl46tOB2k/l9aL8PsOu/C+YgkEnG0RPHrVviPj2qvWzaJ0ZVutsEEbXXg7sSY+lc7Z1dzcQwXBjE/1qZYKHCF6XqJdQqbad+Fr7HTJpXOQyR1kxHvMVe1vc5MRHTG045xH2pRY8bNtSQJgTE04ufiz4MhkuTJEpMSJx7mMD0NJCOp0l/PmN1fvMKcnJtLwrv+jJobq2biKLZVgdwLDIiDgniKp8dLBl/wAuUtgjzKWDSQZG0rJ6nkxxTO+PionmI+IATB4nNJvEfw+DcDG407YBIHTpPNbYQyRqonD6jJ0+RvVk38039Ujm/FdM1srcJZTdJZlkeWNoAIHp+YND2LKuZLsi7pn4YJOWzM+vt1646nQfht9qut47g7SdudpiFBJIlSJDR14pB41pL9i98NmBDLuS5BMgY8zE8jGPURRnCauSM8M/SvGoZd1HwXISE02JW+8dNwUdOdok5HWibWtRXLpp7Yf+JiXP0mI9hXNXbtwkFngYyp9JMqc/7wKtv61VXpdO0QMgzkEkHHX8qoeOb7jf1Dosf/zw360jon8bvYAdUkxCKBk9OOfrULvxWnc7mOhYnOOBx1Fch4deZlMsQgcjYBMzlgOgAwZprpvESJI+QMOASQDxj90SQB7mlnia43El7cyrbHCK/TcL1BFvLYEgsTI8vUjoSP4TVOpuuRusmV5JCglQO4/oOlFjxHhLi7u6iGEdx3z+laexaBDf8MlSxYHhhJ2snGQY9jSR25X3Rkn7V6qf9zXpS/YSXdYxWRdLNwAABPefrHaqURk3MoaePMZx1Mzj6DrV3iVuAGH/AAjIUryCM+ZTkE9DPX0pffu2wvcL0IIkkd8TwMxP5VsglWyMk8057yk36tk11z7wtxB2G0cGQMdvanOg8gfp1/Wkh1IBLXCfMBCmPvg8T+lMtNr0IaGWSsQxj8uaTNBtKkdn2N1EcSm5Oq3+gGurdilzaGPJjpBPIj60TqNTeUb8TklcAgtGdv14IxQV3XXA/mwrn5lnInHTPEVJ9aFAS4p+G2QxgsJnqO/0wKtcd+DhSbcg234g20bru5j5TyFXJmG9o6RjirrvirrcNtQqkZj5hgcfWfvQCqfhwjoynIRxtgdCO+QG4pvo7SlVfBMGCMDoODJ9fvwaSait2itkNXfRwDetDaIG9iCdwncB1jHHE0p1tlt7GwECEyAYBE9IPpFM9R4ylttm0P0HBUEHPlExg/pVaay0/m2Eeg/n60kda4QUmGeK3tOgT9mpkkQZU9RIAMhZgx6daGv3Lj2y1mFIUDbuAEbjJSfcnJ9uKTkK11i7bQDmRPrIHam1+7HnsW7m1lhmZBDGMiInGOlPo00QAIe0A5ZWZogqwbZIng9CD7TUjq0KqssSGILAZcfwmYET3xFBeIaR2/abQltmgEggT1C4mMevWp2NO4Egg2+AVAWZWc7oM1bSrcIx8RuG2bUAhOVC84xDL3Hcfliq7z/Df4oQCFB3FgQwPBOZDcCP1pTrS6wruSeokEZI4g/3FGLqLZRA5dDna22RHQfrx360VHYlGkFt087SWaTsCgLgk9D6DpVun0O0PF1QykbTvEOIwOoHX6moLfDlnF0AkiQ3lkHmME9f7iKoOi+HxsuACW2sQVgwQQefaiEeWSdtvdyDB9IDDp7VXcvW9xPm55EQfaa1dIa2hSFkggdBMyMR61Q+8f8ALtx3Aj8prGoRbep0eyj1GaOKGiOpNJ896oP8NuI15VEybixPbyTNC6q4u9mCOCxYy1wgHqcKBjjr1rfgVv8A/IViANrbscCEJ/lVawADwO5zyCOJ4/rTwjHVSMnW9Rl9ypSSTt+Zq7q3GPKvbqDicsxMGhr+tugwGIIElWAGI5VogisukmSMCFndlTji4OQfUT17Ym2kUW94c7DypMjII8qwSJ7/ANi5qC7HFl1ub/k/mBp4nf746eVf1imen1V0TMMccRA/6mwKHXwsEopBthxImcx68jnMjrVnxAFIgbZgCQqjn5j1jGP1pWoS2pBx9fnTvW/mwpr28RvdZgSVUrJ6AwD9YNdM19Fa8X+b4rKrSQF85lj0MDviuS0N/c6GQQWUBogc/Ki4xjn0rqdObb2tQpZQ7XHKqSJPmPAPPaklijqXzOph6/I8E3J23S5fcKTxxBjeMDvOAPStnxtD++PrXG3/AAG4pgA5niOKEHhNz/q7AASfyrZGd8HFlFp7noSeMQMPA9/5CgfH7xv2TtO508y9f+oe0Z/7RXEnwu5OP0rofwp4Sfjq1zcCDIHQnsR/fFFyvYXSznNHpHMndLMCFE5zyW9BGPWKtveGLgOSrRknA5iREzj+VOvE/wAMPZLlVJth5VgRgEyAQTMzC/QUu1Xhi2wLjNcuACAGUiTnByce3b1qhqW7EaKXvDZsWSylR5VnoYXnjn1k+lE2QZAA+GCp3MRywgZHJMx2oS0FtqrbigYzHqY4746elbJEEM0Otzcd0RjhdvrApKvgQJ0hcKtx2UQ0ADmIyA043do6800tvbJZ2tgMpO4EbgOQBE5OD35pAmqBuq+1okb3I/fySeDAz0p1pvFWuB4RTDQHxAMiPUng4ziqcsZckrYM1XwwoQkDdMlBMfMMq3PP94rmPFNELRl8iYVgJ4iMg88HjrXWWNWJBZOP3yoB7GCOkj9Kq1F9GG1iHR1ztBUyCIlsROYqvHklF8eotpHHrYd4uMqATORntmo2dmxmuAZPCwM46RXQ3fCluM5FwIqkeUrJBPaCAYzB5qweBI4e58VjM7QQOw+bgmY/XmtLzwXP3Gs5d9WNoRJKjJDAHnmO3vVLWncA7QBwBMSMdz+frTbVeAtaQuQGx5thnnOJXAihU1SMQxBO3B3Z9pIGTnAq2Mk1cSX4Gre12LBvhlRAEEyAM5PA9s5FSvW9iA21YRgsJ82eWB5+kRI+tN3xO4X8p9yByBzRmp8UKvIErgleccxBzP8AWpTsDTI2vE7koLo/ZnORtBEfpgfamB8bPENjsY9ePr9ooOzceFchXDfLk+QnqVA45z+la1thA0fDNzHzqcH70jSb3RNrKvEAhhkUgCdxUSIkR+vOOtZb8WYIihiYO7Pm7R07CCDWeH+Jrb6sIiJ4nrK9R0NCa3aWL2zAaSR0HOBGe9WV2aCl2YTd1Ft1TcHYhjMLJjsSTJ9BwIqi7rLom2T5ZnaYPtI47Y4qvSl1UlTM/MAJA9z3oldEzuDcIjp0nEj1+9Gkg7Ii/iLnaLhMDgbePboJ/pU7HioVgQCELTtPA4kr2Me9U3NCzrKz5eRukADBg/aq7VkgQIniPfrNSokpMM1Vn4nmUeViWBYHv1IyaG8plbiwwwO+Bx+mDVl2xdVFDOQJOJbrzI7GOar/AMy0SQd5yDuHTr3JqIiG9jaLQ2ElVcR3+YSPfJqGocbj83TG01HS3t1u420L5pgf9p/lU72pXdjY2OZ9+xrI09T2s9Zhn/oQ1SrZbell/gxi5cbI22nOfVGX+dA/E491yefmPTtn7zTHwp9xu45tqMH+K4qmPoT9qJ0emtAgFQwVpMxJ5McSTMY96inobbRg9pZY+6jFO92/qzn7dsQksIbJAnhYBJ/IU2Nu+VDW5JY4wBE5BJ9Aqj6ntT+7dS1bDBFljJiBg4APXgjt0qOm12WDKwUAEA+X5oCkDEyREmqpdQ5bqJwGxQ2iuFSWgtkqDBK+UK5GesA4/SlOtTbcJuBXnzRML9Yx19eRNPb7I9sbydwYhXyGXvgHzYxnpQnjGoW0APnkwd0HEBlE8xHfOKtxzd1QYtCzwi5N60TJLXEG5uT5hAVRwv6xXa/4c+J27eqa7ctC4CGAyJUlydwBweYriPBiH1FkqNpW4u48zDY5wBED6Uw/D1wgBp6n9a06dUjbHJpwv1+x2/8AiWlzWtv02jbaBsLjbLHerAgTjCxPrXmw0d5BD6e/ImSNw/QRivVPCdayoh/iJ64iQJFOWA5nmro4klsY5dQ73PEfg3pG21fB5/ebB+Xp+dexf4f6rSi041dllu/60YgqFUHaf4i24/Wl3jam0qPb8ong4GZJHopOfQ54JpfqNduCBZG5oIjiFYkH1xx6Uk8aZZDO627inxLxS0i64WUZTddVtMYlED7mB7kjGZrldF4/qUcBbrCYBgLxPt70Jr9S291JODj2z+WaH0vzrPfNLCOlD5J6nYyv34hVYFU6HBiQQBzHXNV6pPiNuB2g9Jke0HPNSs203MyqoAXEz39fQHNM9Bp/KGO3cOhWDOeMT/6pJSUTO3QR4TZuWlVXSYG7y55zmJPHPHEZprZ1I+GLi2WYDdLRwMQRnj7xSW3euftC4uSBA/dCkiPvH/rtXptfetrtBZtwIVj68KY+pzWeUNTvuBsb27qPcIBZxtgFAeGyVO6ZzH3qWo0UFfiRu39DA4gGOM4HE4HM0Ndv3UJK2zJWd4kgRyQOCMkyKV6jxFiY3eYY3T16kdziooNv4eAUPbuotNdIKBPKAzLxxBMekn3xVotWxsQCC0BcbXnBBIICgQswcQa5vQC7eZRMKrqdx7iPpx0Heuv12pEFlL58iuApwR5uT3n320mSOlpJkaI6uzI2r5w4BEN5pBHykYYAnjtik+p8MUKu1USAxuLEb9ozhpHsf0imAiUJZlhgwAXgmd0ckSCDHSBWPdIRXCOSpZSDjDciDkjPbuDSxk1VARy1vVWwJUyBAUNPTIjMfSKoF7O5lXepyJ8sRjjEyaMveDDcGRVZOMBvKTxPcYPH2pXdWCVYBSvY9Z5YE9ulblpd0NsFLfa5cGBkyeYEkRO3vgVbrbVx2koW6AqcQCY6VFbTWlK7oDCW25k9MGPrVVrSXHG4OoHQMSDHsBFSrBsS0l63b2m4geJ3bT2BjB+lVf50NhFVD1AwDEwQO8fzqlEkzukdAs5juP61brVJChV4/hUSeplhnHr/ACp6Vlhdpbl1nIQgE5Inp0zHNR1endmE3ACOekHAJx7j71XpnZHiGRjkyCP7GaItXFUlW2ZxJEsOfXHofag9nsBsr0720Ox7krHmA4OenYxWtVZKkPbOwRx156cniO1BFoLIApz1Anrwah5QBLEkdvXkRRrclBGmv3JA+Js6dscn9fzqKadgYzBzJHNatXTAEAdiRz7etONHa3ASACB0EChJ0XYoOTN2be223sf0repRdwLEDGPLM/Wir6QpHv8ApQFrSO21ouFDE7dxA461l2cm2z0WPI4YI0k/V1w/+xz4QigMV6gAkYACkn3k/wBKlo9AHXfB27WAnykZktuwMwvp962NPg2UJSM7nkhucFumYM+kRV+mDkRccIiAKPOCXjqCMbf54jFJK0rTPPdXneXI2/8AwlY0rLbmWZjLLj5RgQVBkkMfy9Kp1Xh96+gcXAPL+0DNDfMCNuO688eanDoRLMmAuP4oMQB1k9M/Sg7FgEXPM6R3JYEEHj09SegqqMuZGXuJNTpCh/aNtBB8pyTmZjhWkDjpUb2ltugtEEESVMiWniCeSe/0o258YOqkJfgHzCP+05ODB6xgUg8V1Nw3GV0KsIgnoTwO201qh8TQVvwa8A3rfReF38nHEmB60x/C5HHWAfoeP50FY1LG6hJwFbd7qtyJ6SJj7Uqs6tlZWB+ncA8flWmN3Zp/2l6s9R8KueYKeF3Y7boNdKdXuQAASMdM4/KuH8A//ItTcCjdukdwDAplp9NYQ7VUCCMSc/NPXvFa1HZHMlK5sZ+O30az8MzO6M5kQQSDPHTNcrqLL27luGDBmIAEgz8N4J6YEifaeJrpNb4XvtypIK5icR1FJfFEVfgsejkyTH/Kuc+lVZE1yaMLT4OJ8X8PhyRImfrHX0/3oWxYAIbIUcnAx6U98QXcRBjyk9+opDrBtwGkkdo+mc4rOpN7GrJGnsFadDcViirzMtAiOpzNNNRZKMrKXLEgiT5VzgsOnf0mubXTNwOomPQ804talbboGyOgORmBJ9P6ClnHfYplXYao1yZuMrgOdwDfun5iZGeI7/aibaWmLqwIhTDKdu2D6GdoxHsYzXP3F+KWa0wECSuRz+6D3gRnpOaJ0dy2kI4VPKCzEmWk5KnAnHXtVbx/MWi+0xUNvuEGTKqd3QAQ3ESZ45B71X/lVts10P8ALlUYAnoJDcTgxMHmhb9pZX4bAbgZUkGMwTH0mhLlq6T8MAsxJO0Dgnk+mOvFMo33rxJyONH4itx0DHAM4x6Y++Kvsu5QpsYhYNstEyNxgxwQvTtM0s1OotPsQrs2qVBXkNjnvkxTDUae4EtohQZ5GIcgEE9ehzSSSS8BWhj4Of2QV3GAT5YIljIxiWIMk+lX+H2rgKl7hK42yWkzwAxz98+uKG0unVbYAu5ZibjGMwFmIEkdAP8AVRdnxBdjbFZvhzII8uMDgyADJ9dprM3Jt6e5AuzqQSQWAYcL1WTgcZmMe9A67S277gC6fUQBgkc4+aJ+tVXNSl0QAPikeXyxBIkExmAQBJ4571Dw5ArMl1iLgBfacDcFAaYnueDxTRi42+K4CA+I/h/DFLxQL0uAiOkbxg47D/ZHrPAr9ttuwviZQMRn1jmu4u6m64ChVXfEGIB5IMHrGOMgUr1OgvbjBWO+4mfX5Ksx5p96CpHMC2SZVdiiYgz+nNT0vxAwGwwcZMTOBBraWTOCQwkqNwIE8x1ist6htoWVBHUD369O/wBq1jtmavSLaOXMxPEiZIjGQcVQLVrDM0gjgcg+lR1hZ+rkDMt3/lWGzjJEjr0z3mivNkKdS69Fgd85q1NkZQgk857dOgyPzqy/bdhG0EfxDp3nofeidBomxMkdqjkkh4QcivR6JsEz9aeWU2CrLSAe9RCbiZwKzylZvx46IXASJNAWnYKqgsQ2No7xiI7GnNjT7yEGAeSZMDvipabTf5dXllYkwrDoOZg89Diq78C/LnxxxaJK3vX0GEqgT4rSYgruM59T0nH86E1122twEIotpuMQCGicAHpPtzSe/wCIEkhv3RgYn/TIGB3+/ehfD7XxHKhwFwSWzBYhcyeSSMUY4e8mcN7uxx4/r5O3y4GM8AiQInjaVozwzxIFdlkEgJtYjL8Q1xZwIYzHoKAu+C2LZl3d1Bh9xiB1I284gDoDzV1vxyyqNA2FyUwIhDkSO4gZ9aVxTilBWL6F2p1qG2WI2XAQD6N3I4YH7g0r16LcT9oSHAhX/iAgw3ST9844qrWO2oPxVtyAFDkEc5kkdJiiX1dh1CttU8cQPTJ+XiOY44qyC0peP7BQr0GkVQWdl4IQzgllIyYngz9KUX8EDsAPt/vTHXa1kU2wCmTiI8uYg9emaVM+45OT1NaYXyy1XQ/8M196xalFUr8zFoP0GZ/91C7+JLzHG1fZc/nRGitq2na3uPcsoPeeo4xQtnTo1sWpUw87gG3R1Hy+tXONVRVGTd32f0Oo8D8dvBVe43Qk9Mew9K5vxnxpr6sD8syoxgZjPMxj70R4s0W/hqwUHksdsgdM1zt+2VjiOhBBB+op8rTaXgV9NjauT7vg6RzIAOf2Y/WkGoTGOBj69qeWcscTCIPzal+r0pDjA2k5np6k9hWKDpnUywbjaArZMiD1xx6TIoxtPbAEszHcenlgf39Kj8ZUlVPrMcx2n0/Shr17Mjj0/OnpsyNMN1d62hLWjtJPAyBB7Hpgfep3fEkuIEdAAD5YXJkZJPqZP1qqzcFlgwyYy0e/Hoc0LqnBYQDmDP8AKokmIOtNrLVtUARTAkEgEzI+b6kgdoFQva3coKuJAaQMSJAMntmlVzQkOEJM9gPSYEx0610Gl0ltQqlBtEGXUHcczI6+nSq5aY7vexXS3APBdGLge48eTiep+Y46zPXHtUr99kzOWJ3QZ9DMcH19BRHwAtuEuR0CxjuSc4PBoUad2t7jyrcLiRzhevByftUTTbbCty+7rdqmR8sAMOcmfqJHFUaDxVpI/jEd442n9fvQWptOQIBIImAZ7QT2Oad+DKlkEMqOS0POfQBfbJkdqElGMeLA6oM0OrDMVtDzkhN0kHIMz02/Sjdddfb+0K5wciTwCVPrzikYtiyQquxLtKqfKF4G7vPrjE0dfcKqlm/ZpAntA4AnseoMyRWfJD4thXzsMvEX3W0dRcUW8gEZjuY7CD9fSlviqxchjtaBuG7gx6GKIveIQW2hhgFJOQxIEHO0YnER9qJSxdIB3WuOpBP3iljaW5LRyNvxa6262VVg+CIHPcdjVK2UALAtjlWIx2gj+lRW/EjbJJwR0I4OOfr6Vd8dCdzwYGZWMnvit7VcFy8kA3LzP+7xnAn/ANiirfwwjEE7uQveDkcR9KofUjcDbHuP6HkVZa07uQSc8TzPvNF8DKDfBfYRmdd0yMjMf3/vXQW9PtzigdBodvqf7/KmDn61nnKzbix0iu6Z6VtSB3z/AHxWItFW7GAzGF5JkTjsKrlJJbmhuMVbKrPVQ0FuROfT8+nWr28LTyj4hBOTuIiOJ6EHPY8GtOF3CFYEQR37rM44qi5Buo1wErJmeCRJgf6R6+tVt3unRys+RSlZfrPDUYnzRBAWBJHThYDDr6Vd4bpbenWFTdcbNwwG2jhRDZ7nAHPWo31/aLccFWZlZFnLmSRuImEECZ7H2ojQLbYXhdctvlueoJD57zEdKEm9G7tFVl66W3etk30XcqlrYMeYgZWQZnjBHEetcbqPDFdWZNythghOIAggk+aY4/P0c2tcd4cDy4wDglR5uOQQOaaazTI4a8hKbQRtWCGyxUsp6keXHBjnNPFvE9+/yD6HEeFG4A20kBoEcA5wGimmqJZwWKt/qnKxELERjv8AzptftjUKNwS3eRYELIIE5gd/rgnmuateF3SfI45wxJAaf4TznA4q9STtvZkST3YZqNIl2NxVMjoWY/8ASxPB7R9653xHThHIB3A5BHH0yaMRrp3DzdiIBHOevaqNJ4e5bCgxnPb7iath8PLGqjen8QuKhXeQCenp/Y+1XWr7oFu5EloaOTA6feh/ip1A+zf/AGqa3bRxtH3I96uJXkXahy4kmevalT802RJHlQx6Mf8A61TotJvdjkBIMHP049KVutx4xb2H1pIjM4571rUpuH061lsz/f5Ve1usb5s6iS00cxcLTszA65nnFb1V0cAcY9fWetH65Qh3ck8frSn4bEgzBJ+399q0x33OZkVSou0wTLN0I8pmOgz/AH0NWXlLOfhiIMiP3eoj1/PFQtagtKGPMccATwCfYTHrRtlfhpAYlZloHJ4AU/n/AGaj2KWE6MMrl7m0s0BeGMAiSvT0n1ohrDBnZ38iqHbPyzhQJzyw47ih7q2xbUodrtmD1AjbJ571U+lZIu3HJzJWJGOJPEz0qnncUGay+2JnceP3owMH2HHpRNl2BVWQpugLyNsEZB6zJ+9E6fV/DFy41sk/xEcYnb6TjNXaHxbz/FcyEM5ySSJ8gJ7T6Ci3LwJuD39YFX5dpOZPJAB4NA6Z710BLa7i0GPUEzn1p5fum4ArxsKztByOZDdjiiTp0S0VVW38gLgyeJjJxk0kcmlcbgToC0XirB1S6sZ867R52IIWf9I6R0E1bqrjIAvxFuLGFgmZyuQMDH9ZpUPD7l64WSFIHmlgI7gepg495ijyEYkMsLbWYYyWyIjODJHT60JUnfzJ5ktTqz8G2pU72Eq3BII83PC/1+tH2PGLKKFFoPA+bJz6HtS3WXSyuVXczmAGMwTHPrGe1VPoWEBjBAiFKxj+dTRFrfb9SRQj0et+GPlB7f0P99KsIZxwgH09PtWVlamXLkv02kA/2zTixp4Hf+/SsrKpmb4RQWOKrisrKqLok0TEySPtWl1BDiQCoiOpx0+prKyppTe5T1f5C674ifiMFuQzgyOowZlhwZHE9+Kv121NMjMS1y6m4uG5UiPKOBwB3xW6yknFKq/nJy33Fd3V7rShCGe3sUkws7YKx12gg/ejLNhXBY3VBI+STmABMzEmIz/OsrKeapAkAWrSrYe7BZBhQG2naSc5+gjHWqLviDqNgMoCDAwGEnJxOYAisrKsj8Ut/H/AUX+CJtZXuO2/lUyARtkgmZ4n7Vf4poUIV7CuLR+dZwhiVYHkCcdgR9BuspJN6g9xff8Ah/DW0kqMMCBJmAeevXNDtqLlsi4p37QQzQQIIjp8pz+lZWVYgsS27P1E8jpRtjSd8gdjz2xWVlXl64GWjWFI6zkdscVHTgK9zdguAVnqVkEe8GsrKq/uZevyoYW1MR/frFT2YrKyqGa4i3xdBANIrxI8wkVlZWjFwYOo/OUKhifWKcXrtx7fmVj2G3AxyI7n9Kyspsj3RnkU20K2wTO4mAp/l1B/rTHRPctg7+PU4zBED0Iz71qsqrJ4Fcgh9f8AtALjAsW6nGTAEdsTS/S2L1zebaTtEEiOJk5PHcVlZTNaY2vIK4QfpnHwypB3KPN/EhjEHnOM+tA6HxlrTbct5pBmI8oAx6HNZWVFBO7IkXPqdrG3v2lvmxyTz7f70ZftqbYuoQScbGxvGRM8xjrWVlJkWnjxA9gCz4iVB3DbJ3AwYECIB6mjX09gwbt6HIBPkU8ic+vT6VqsppRuiM//2Q==;" parent="1" vertex="1">
          <mxGeometry x="420" y="10" width="392.86" height="220" as="geometry" />
        </mxCell>
        <mxCell id="jvmUse2JobH03HYmrhWS-1" value="MonolÃ­tico" style="rounded=0;whiteSpace=wrap;html=1;" vertex="1" parent="1">
          <mxGeometry x="40" y="850" width="120" height="60" as="geometry" />
        </mxCell>
        <mxCell id="jvmUse2JobH03HYmrhWS-2" value="ProgramaciÃ³n Distribuida" style="rounded=0;whiteSpace=wrap;html=1;" vertex="1" parent="1">
          <mxGeometry x="40" y="1050" width="120" height="60" as="geometry" />
        </mxCell>
        <mxCell id="jvmUse2JobH03HYmrhWS-3" value="ProgramaciÃ³n nativa" style="rounded=0;whiteSpace=wrap;html=1;" vertex="1" parent="1">
          <mxGeometry x="130" y="260" width="120" height="60" as="geometry" />
        </mxCell>
        <mxCell id="jvmUse2JobH03HYmrhWS-4" value="ProgramaciÃ³n con framework" style="rounded=0;whiteSpace=wrap;html=1;" vertex="1" parent="1">
          <mxGeometry x="540" y="260" width="120" height="60" as="geometry" />
        </mxCell>
        <mxCell id="jvmUse2JobH03HYmrhWS-5" value="Sistema compato en una Ãºnica unidad&lt;br&gt;proyecto&lt;br&gt;&lt;div style=&quot;text-align: left;&quot;&gt;&lt;span style=&quot;background-color: initial;&quot;&gt;* vista&lt;/span&gt;&lt;/div&gt;&lt;div style=&quot;text-align: left;&quot;&gt;&lt;span style=&quot;background-color: initial;&quot;&gt;* logica&lt;/span&gt;&lt;/div&gt;&lt;div style=&quot;text-align: left;&quot;&gt;&lt;span style=&quot;background-color: initial;&quot;&gt;* conexion&lt;/span&gt;&lt;/div&gt;&lt;div style=&quot;text-align: left;&quot;&gt;&lt;span style=&quot;background-color: initial;&quot;&gt;* controlador&lt;/span&gt;&lt;/div&gt;" style="rounded=0;whiteSpace=wrap;html=1;" vertex="1" parent="1">
          <mxGeometry x="250" y="840" width="210" height="100" as="geometry" />
        </mxCell>
        <mxCell id="jvmUse2JobH03HYmrhWS-6" value="" style="shape=flexArrow;endArrow=classic;html=1;rounded=0;" edge="1" parent="1">
          <mxGeometry width="50" height="50" relative="1" as="geometry">
            <mxPoint x="170" y="880" as="sourcePoint" />
            <mxPoint x="240" y="880" as="targetPoint" />
          </mxGeometry>
        </mxCell>
        <mxCell id="jvmUse2JobH03HYmrhWS-7" value="Backend" style="rounded=0;whiteSpace=wrap;html=1;" vertex="1" parent="1">
          <mxGeometry x="250" y="1030" width="100" height="30" as="geometry" />
        </mxCell>
        <mxCell id="jvmUse2JobH03HYmrhWS-8" value="Frontend" style="rounded=0;whiteSpace=wrap;html=1;" vertex="1" parent="1">
          <mxGeometry x="250" y="1110" width="100" height="30" as="geometry" />
        </mxCell>
        <mxCell id="jvmUse2JobH03HYmrhWS-9" value="" style="shape=flexArrow;endArrow=classic;html=1;rounded=0;" edge="1" parent="1">
          <mxGeometry width="50" height="50" relative="1" as="geometry">
            <mxPoint x="170" y="1060" as="sourcePoint" />
            <mxPoint x="240" y="1040" as="targetPoint" />
          </mxGeometry>
        </mxCell>
        <mxCell id="jvmUse2JobH03HYmrhWS-10" value="" style="shape=flexArrow;endArrow=classic;html=1;rounded=0;" edge="1" parent="1">
          <mxGeometry width="50" height="50" relative="1" as="geometry">
            <mxPoint x="170" y="1090" as="sourcePoint" />
            <mxPoint x="240" y="1120" as="targetPoint" />
          </mxGeometry>
        </mxCell>
        <mxCell id="jvmUse2JobH03HYmrhWS-11" value="Sistema distribuidos en partes&lt;br&gt;&lt;div style=&quot;text-align: left;&quot;&gt;&lt;span style=&quot;background-color: initial;&quot;&gt;* logica&lt;/span&gt;&lt;/div&gt;&lt;div style=&quot;text-align: left;&quot;&gt;&lt;span style=&quot;background-color: initial;&quot;&gt;* conexion&lt;/span&gt;&lt;/div&gt;&lt;div style=&quot;text-align: left;&quot;&gt;&lt;span style=&quot;background-color: initial;&quot;&gt;* controlador&lt;/span&gt;&lt;/div&gt;" style="rounded=0;whiteSpace=wrap;html=1;" vertex="1" parent="1">
          <mxGeometry x="360" y="1010" width="210" height="70" as="geometry" />
        </mxCell>
        <mxCell id="jvmUse2JobH03HYmrhWS-12" value="Sistema distribuidos en partes&lt;br&gt;&lt;div style=&quot;text-align: left;&quot;&gt;&lt;span style=&quot;background-color: initial;&quot;&gt;* vista&lt;/span&gt;&lt;/div&gt;" style="rounded=0;whiteSpace=wrap;html=1;" vertex="1" parent="1">
          <mxGeometry x="360" y="1095" width="210" height="60" as="geometry" />
        </mxCell>
        <mxCell id="jvmUse2JobH03HYmrhWS-13" value="API" style="rounded=0;whiteSpace=wrap;html=1;" vertex="1" parent="1">
          <mxGeometry x="590" y="1060" width="70" height="50" as="geometry" />
        </mxCell>
        <mxCell id="jvmUse2JobH03HYmrhWS-14" value="Partes esenciales del Sistema" style="rounded=0;whiteSpace=wrap;html=1;" vertex="1" parent="1">
          <mxGeometry x="254.27" y="380" width="335.73" height="60" as="geometry" />
        </mxCell>
        <mxCell id="jvmUse2JobH03HYmrhWS-15" value="" style="shape=image;verticalLabelPosition=bottom;labelBackgroundColor=default;verticalAlign=top;aspect=fixed;imageAspect=0;image=data:image/jpeg,/9j/4AAQSkZJRgABAQAAAQABAAD/2wCEAAoHCBYSEhgSEhYZGBgYGBgYGBgSGhwSFRgSGRgcGRkYGBgcIy4lHB4rIRoZJzgmKy8xNTU1GiU7QDszPy40NTEBDAwMEA8QHhISHz0rJSsxNDY6ND40NzQxNDQ0NDQ0NDE9NzQ0NDQ0NDQ0NDQ0NDQ0NDQ0NDQ0NDU0NDQ0NDE0NP/AABEIAMMBAgMBIgACEQEDEQH/xAAcAAABBQEBAQAAAAAAAAAAAAAAAgQFBgcDAQj/xABKEAACAAMEAgsLCwMEAwEAAAABAgADEQQFEiExQQYTIlFSU2FxkaHRBxUXNGKBk7Gy0uEUIzJCY3JzdJKzwTOi8EOCwuIWJPFk/8QAGgEBAAMBAQEAAAAAAAAAAAAAAAECBAMFBv/EACwRAAIBAgUCBAcBAQAAAAAAAAABAgMRBBIhMVETFAUyQZEVM1JhcYGhIkL/2gAMAwEAAhEDEQA/ANmggggBpb7bLkS2mzmVJaCrM5ooGj15UipN3U7sH+s55RJmfysRndxmEXfKUGga0oGA1gS5jAHzgHzCMQs9neY2GWpY0rQU0efnESk27IH0D4Vbt41/RTPdg8Kl28a/opnuxg4uqdxbdK9sKF1TuLbpXti3Snw/Yrmjybv4VLt41/QzPdg8Kd28a/oZnuxhQuqdxbdK9sKF0zuLPSvbDpT4fsM0eTc/CndvGzPQzPdg8Kd28ZM9DM92MOF0zuLPSvbCxdU7iz0jth0p/S/YZ48m3eFK7eMmehme7HvhSu7jJnoZnuxiYuqdwD0jthQumdwD0jth0p8P2GePJtXhRu7jJnoZnux74ULu4yZ6GZ7sYsLpm8A9I7YULpm8A9I7YdOfD9hmjybP4ULu4yZ6GZ7sHhPu7jJnoZnuxjQumbwD1dse96pvAPSO2HTnw/YZ48my+E+7uMmehme7HnhQu7jJnoZnuxjhuqdwG6R2x53pm8A9XbDpz4fsM8eTZPChd3GTPQzPdjzwo3dxkz0Mz3Yxs3TN4B6u2Em6ZvAPSO2HTnw/YZo8mzeFG7uMmehme7B4Ubu4yZ6GZ7sYsbpncA9XbHhuqdwD0jth058P2GePJtPhSu3jJnoZnuweFO7eMmehme7GJm6p3APSO2EG6Z3FnpHbDpT+l+wzx5N0s/dKu+YSEmOaZn5qYPWsOPCBYeMf0b9kYxdlhaXL3SkMxqeQDID/ADfhy0lt4w6VT6X7E5ocmuHuhWHjH9G/ZCfCLYeG/on7IyBpDcExyazvwTDpVPpfsM8OTYvCRYOMf0UzsjtYNnthnTFlrOIZiAu2I8sFiaAYmXCCSRQE5xiTWV+CYZzRkQeWIcJR8ysSmnsz6kghndcwtIlMxqWloSd8lQSYeRUBBBBABBBBAGZd3TxGR+ZX9qZGSbGh8+fuN7Sxrfd08RkfmV/amRkuxofPn7je0kdsP82P5K1PK/wWqPRHghQEfQnmjmx2XbK50pTVXTXsh2Ls8rq+Mc7vNFcjyf5h9nwxq5a13qb0eTi/Eo4epkkntcsrDcXZ5XV8YULs8rq+MdZjFaUcH7v/AMhO3Nv+qMb8bp8Mm64PBdvldXxhQu0cLq+MJ29uF6oV8ofheqI+N0+GMyFC7fK6vjChdo4XV8Y5fKX4R6o9+Uvwj1RHxunwycyOve3yur4x73t8rq+McflL8I9UHyl+EeqHxqHDIzLg797fK6vjHne3yur4wl5zBVIepYEkDSpDEUOXJWOfyl+EeqD8ahwycy4Ove4cLq+MeG7Rwur4xz+Uvwj1QfKX4R6ofGocMXQo3b5XV8YQbt8rq+MOVRyAcYzpqOvfyhM8OgBL1qaZfERb4zDhkX+w2N2jhdXxhJuzyur4w4RyRUuBnSh08+QhRB4xevPk0f5WJ+NQ4YuuBmbs8rq+MJN2eX1fGO7TGqRiry6jHWYCApD4q6aYcjQHQCSBnTOhyOUWj41Bu1mLog50vCxXeJHRHIw4tX9RvvH1xxIj3YvQoxMVq0aW5zFmisWjS3OY87xLZfs1Ybdn0tc3i0n8KX7Ah7DK5vFpP4Uv2BD2PLNQQQQQAQQQQBmXd08RkfmV/amRk2xv+ufuN7SxrXdz8RkfmV/amRk2xv8Arn7je0sdsP8ANj+StTystIhYjwQsCPoTzSX2P2izy2Z7WyrKFMRauGpqF0Z6aRLyr9umgxTbOWq1cO2gYa7mmWmmmKVfEnHZJihlWryt05wKN3rOqI279iSMazbZKXQSJQMzInhsUUc+iPBx8abq5pccXNtGN46I0k37dXGWfpncnk88c22QXTxlm/VO0/oiDkbF7GBtbM5d8leZSlButwVotcs+Tnzzy/7u2ia8sMGCsRiUgg0NM6a+SMMKdGey/hdxytXSNgS/7pP+pZ9Whpx5/qc8cpt/3XXczbOMs6Y2zqeEBqpGPXAqlyr66U1cKJS23TgbGi40OojEy841jlEUqUKb/wAvQi8Yy2RrFlvy5ygMybJxZ1w46aTTVvUjoL9uQ/60r+/sjL7LdciZKZixR1rVQciNVA1eqIYXYMVC9N4kZdIiI0qdrW2F4v0RtSX3cpyE2UaaabZ2QrvzcvGSuiZ2Rj+x+4Js+ZOSVhbAqk7qmRJAplyQ8tWxm0JmVT0iU1ad1lpEWdOne1kd4UFKN0v4al36uTjZXRM7I8N/XJx0n+/sjHXuyaGw4F0kbl0plXl5IbW+7nRVLKAC1Acamp8xiyoU3/yRKll3X8Nq7/3Jx0n+/sj3v/cnHSf7+yMAtEsh8JpWg0ZwJKrri6wsH6HNqK9Eb93+uPjpP9/ZB3+uPjpP9/ZGBugGrp7IV8napBUihIIpShXSDyiLdrD1SI/zwfQtjtl0zgWlNLcA0JAegOWsjlHTEnJuuxOAyIpB3sUYxsTtjybI5SWXYzzhUKWCkIlWJ1atGZ5ou1hvC0ORgVpQOYVjjoa62IpTk5dcZKtOMdkjTTowmi5zLpsaCrIoqaDTphhaxdyAjcBqEL9KuKmXXHGVNaZmSzMdIA3CnXQ/554jrbKkS6vMdWYjIVxUY5AUXl5Ro1xxptZ1/lF3hoJFTtI3bfePrjgRDm1D5xvvH1w3Mfaw2PEYiKvaTm3OYtJiqWk5tzt648/xHyr9mnC7s+mbm8Wk/hS/YEPYY3N4tJ/Cl+wIfR5ZqCCCCACCCCAMy7uXiMj8yP2psZRsa/rn7je0sax3cfEZH5kftTYyfY1/XP3G9pY7Yf5sfyUqeVlqEdFEIWOix9AzzxlsiNLDOI4Ur24osi1UO6BP3WwfwY0ubdZtciZIU0LFCKadyS1OqKzP2DzEJo61rSjqV3W9UV9UeTioSlO6Rop1YRjZsh7JeIDAuWoMwNIB5q5c8dJt4BwUYBgdBpRga10dMPLXsNtctcZlKy5ZoykZ6NNDEdNuyfKymWdxytLanSMj0xks4u9jreMloxdzhFLiYcqLQ69J0b0Tt1znmq8pQWBBGPMacqHloYrMl03WKgOEBQN8E1HqifuLZIJCqjyxhApVMq8rDWeWM9WLabS1IktSZsFypMltWZu1J3AoNwADizFdNR5oZ3RZztplTZRONaqd7LTCLTKpNW0JQymIbA5AKudRHXDy1XwxGGWtGyOLSQRpw8/bHBuW29/4c9nqP9i0oSLVaUH0SkonRwnA08tNGcSlun6ZjkggHCMmZiKhVCrmBp0HfNRFcuC8mM20MWCsZUsGtN1RnOVdeeqHvfJM6DdHJiMyQVO/oz1RdQcpHs0pqGFUh1NdsJLphbPDhwqAajeJ39XLEBfsxmlriOWNcw1SAczXciF3hfGZUtUkmnSOyIG8bfjllKjpryRthTUVdnlzqznL7CvkAnTmCj6MsEBRSpqxPqMSlk2NGYVRRhZyAFbPdAA4QdOg68stJh13OLOLROnMxzWUuWjECxxLv6KjKNHWypLGJVqEWorQOp0VBpqB6o8rF46VKo4xHTb9SmS9iUuXRmqzAB1GgFitcLZaMjo00h+li/0kkgNuy5ppxowYmtOGdFdMWO1WpQWehJOHXUV0UUcuRjjNtYVDMmMiVUE4yEpQUBJMea8TWlvqTkXoZ/dd4S7Lt0utZgtDE0BCvLwoKAazUNlUb+cWuw3yk1WZJSKuovMxVyyGEUFSdRb+YzW87QHtc9pQ2wtMJTaxjUggUIC6fhD+xXRb5wCpZpxpoxLtK+YvhHRHvOEHBOTs2vVminUlHSxc5+zFVBTCSlaFa4Mh9LPSa572nXpiCvW85c2Ym14gMabnQPpDVmN7ly1wWPud3hNFWWVLBz+cmBiAeRA3rh/Zu5/tbgzrauJGBwS5ZNWG6AxM3JwYpGeGhJWevudc85JpILWPnH+83rhuwhzav6jfePrhu0fUx2PFe5zioWk5tzt6zFwim2o7p+dvXGDxDZfs0Ybdn07c3i0n8KX7Ah9DG5vFpP4Uv2BD6PLNQQQQQAQQQQBmfdx8RkfmR+1NjJ9jX9Y/ht7SxrHdx8RkfmR+1NjJ9jX9Y/ht7Sx2w/zY/kpU8rLWsdVjmsdFj3zzxVot8yzSJk2SwVw0sBiquKM2EghgRmDSJzYhsnkWo4LYVSYxAGVEdqUDA/UOqld7OK1fTUsU85aE05jSeQ/5vRCJdLBgZRJDE5VxMhpU6Pq8hjx8XUca1uUdcicU2axetxUm4kFVIBIOnIx7b1lSpRtU8lEQZ8IvoCqNbHUIjdht62iSrSrWsx0QDA7jE6+QWGbLTQTmCN4gio7Jr7m2i0CY8hysskogBwAYtJGdSRQV6hERqScSipRT0e/oVnZLeRtlpMzAEAVVCg4jhBNCx36GI+z2EuSoGeEkc4h9OmmbPdmTASF3NCNbajHKZM2s4lNCu9nnGeTvex6VKCUU3sNFlO7GhdmUGp3TGg3s6kUESFgptiKzuEZWZmyQhVRiTugcgRHlnnBJ2IAoasGV9zQVqaHOg1ebVWO9/WliqgDcTM8RAq2E5qH05ZEryqdcUW9mi86cbXRzs1v2t22uYwDoofEEYk1O5qVyHNvwl0B0O/NuadFIi5Qox5h6zDxDlUR2hTTd0VUrRUWcnkYcsRPPmY4tUZV6h2Q+k2Z5hARGYnIBQST5hDp9jVpGbSiv33SWf0uwPVHbpW9Dk5RJXue3e882kSpry2WUrLteDdMCxUNiU6xqppiSuW22jbml2p3mI9FRxNaUqgMQSWlMtQRoB58hpRsJadYZd4PtZ2xLMrKKq1M5lHO6zUEZgEnLRFFst5TDMU1Zjizq1MQY1wsaaP8AMoxTpxzu6XsW9E0aXbJ0ky2WTKUtkvzjzrSS7Ajch3alNNf8Ke59c1mmY6qJk1FLM7hXpWqBc655k1pnlvZVvZSiyLMhlvjaYFxnEpwKK4pZVTUE4lryVGsxH9zq0TlvKT8nWrEsrriKK0oqSwc5gKKV0aQNJpEWS2LepZE2U9751pkqlSLXMdQMloVCEcmgdMeTtmjyxillmZsLO7aASN0qrqEQOyWxO9vtTBSR8omLkK7rI0r5xHNrhnFRRakfSA1ZVzOumfRFJYWnN3ktzrHGSheKsaMuztZUpcKhnwitMl0az/mmKhemyprTa5cwDBu0UAGukhSeuJOx7GAbMkuYaTGcFwGWu1lqYRQ6aREWzY6JVpAkkuiNLbEaZVfNa68hHLDYalGpotTtiKzUM0bK++upYLX9NvvH1w2aHNr+m33j64bNH1kdjwXuIMUq1ndPzt6zF1MUi1ndPzt6zGDxDZfs0Ybdn1Fcvisn8KX7Ah9DG5fFZP4Uv2BD6PLNQQQQQAQQQQBmfdx8RkfmR+1NjKNjX9Y/ht7Sxq3dy8RkfmR+1NjKNjf9c/cb2ljth/mx/JSp5WWtY6LHIR0WPoGeehtfz0sU4kVzlje0tSvXELdsx3WsutSaMxbCAOSmrmEWK22czLNMRQpJMs0euGgaprSIWRZJi54pY1AYWP8AIjx8U6ca15u2h26cpQWVFnuy8hZUKBnYtQu8w1Nd5R9Uc3nrEDfGENt6riUk41xEkVNarnkNVNUcLVZ3UgvOUVyoJZoP74dSrDNYUE5NH0TLYCn64pLE0MtkUjh6t7sr1nZWmOyAhQq5HSc2hpMBWYRSuE4udQcQPnFD54m7FcbCbOVWJwKhO1ymmDdF8sIJI+iY7Wu7Za4XrPZ8IDUkNLVDWooW0kZCuiMurd0elGcYwUXuiKvWeJ06ZOQDAZjMtRRgpoBz6q6dMKS8nJEokFNaMqunJuGBFc/pac9MTkvY+k6YAi2s1UFiZSy1WZQBQoP1KClfJyiQs2wSXVmmTLSKDIy5YmBn16F+jWJbtuQpxZR7zYbacKhdyKhagVqc6auYZZRJbGrta1TCuIIiDFMcioROQa2OgD+AYYbIrA1nnBWLbpFbdrgahZhmpA4PXHS774nSZeCWwAxYzuVJLUoKkjPkHPHelVUVqcqrv5TQnv6XZpTSrMiopGHEwVpjDRumpWpzOWQrlFTtF9O1QGPM1GHNnHK47um21yWmqktBimNhq6jLJU0EknfyFTyGGvMIrNtTNuTmJmFsiaBgwAyrybxizxEL2V7nJU5aXLlsXvMiXbnAGIyJKKAMql3GdNAzivXfaZEieJk1cRBrgCruW8ohRi5MgN+DYghmGapmuikIWWUquz0ZqAFxRQKnOo064u1g2A2O1q0wz7RQCpB2pWHOAlDGWUk5M1xhJxRXJl+WdknrMkyys58Y2rDtgYqAOdtOeirNvnE62FzkstoDBqM9BhoqFUJB+cYAVyyzpmTQUES0vub2EsvztpUMxVWYpTGpIIyTLOHVg7ncpSxk2mcjo2dQpOWs0A3oh2W5Z0pIqt4MzW+0hXCKLUxxE0CsdDU5MPqhzZkMxQ+2ozhzWWzbWrqKmuMazutQ0iIK9HeVa7QQ4dknuMZShcmgrQUpXeh3cazbVMwK0uTgDOZmFhQ5ZM2Ki6yCSBkc46R1SMVSDzNlhseK0zBKeXtG1Njd6sXEpdyss1FakFN1qwk6zEVa7R/7Cy5eJUV0BTEXUTKgvhZt0y4q0JjnLs0/bCsqaHRyVxgMqO4qAAcRroIB0GhpXWt5M9Z4aaqOcSKWBZSN0K5U1V0VpllFsuRpsoouWi3J21/Tb7x9cNmjvaz84/3m9cN2j3o7HFiTFFth3T87+sxeYoltO6fnf1mPP8Q2X7NGG3Z9T3L4rI/Cl+wIfQwuXxWR+FL9gQ/jyzUEEEEAEEEEAZn3c/EZH5kftTIybY3/AFz9xvaWNY7uniMj8yv7UyMm2Nf1z9xvaWO2H+bH8lKnlZbBCwY5CFgx755w7lozy3CAltwaDM0FScteQMcLNZsbAleWuoDfO8OWH102lZbYmNN0p11yropoOcOjPk1crT5xlxAg0EtTiKqBoxMAT90R4XiFCtOteKurI20ZxjGzYytF1hwQRnpA0UP+EdMRV4XdNBQrWgGVNJFSP4i0We2ogO6BJJNaGoGrVqJ6hHdLdKwgMKkUzBZaChrTLI1NfPHnrC4pf8M69aPJTrnebKtFoTbERsMpWLq00aX0YGFKVO/HWbf9plzGlY0x5FcCKqsPqlSVzG9WHd53YZlo+USpyJuFQqZZcHCSakaNY1aoaWm4HmvjmWlDlQBZRUU6Yv22KzXtpbb7lXOL9TnNva1g7t5qknICWjpU6hhQ5154JVptrHDinIdAxIgVjrouAUGjkEPrvuFEcbbODoB9AoWBbVUvWg05CLDa7U5FJDolRQl1aYfMNA89YusPiMrutSl48mVbJ5Uz5R85MWY+BSShXIVbckqACRyb8R0iWzEIoqzEKo32JoB0xeZ2xRpjtMmWpXdwMRKFRUV0AaqEdELsexMS3xbehpo3DjVzx2jQqqKutSXKLe4wvy0bUqSJDKZeAjCcaVdVKiYMIqWJLGtKMd+KbOJVjiJLCm6DGo3qHTF+vDYkZrVW0S0G8ktq6cqmtaww8H//AOpPRt70QsPU4LuUb7nDYBKxvOdqsyqlMAZ5hYkgYQmZ0Z0z5RGjWxXs9n2yYFQtVURcndqfWoSFY5ZEk6a6DEDsQuQXe8xzOD41VRhVlpQkmuZrpiyWm1y5gUTKPhNRiBpUGo1VHm7I6KhPg708RGKWoWiRL2gzEDqisaYGqilsKEUBqSa00HSd+ImwXwZhmUBOCmNw2EFCaDGTQjMa9NIlpF4Iksyw1FLlqICKSz9UE1JPKax0kXrJRmcKpZ0VGJFcSKKBSKUIiO2q8HR4qnls3cye0TFe12lnObTGIphNTUfWGVM9UTWx66rRb9sQTgLKjiorgEx8Iy3IOdApIO+NdKJvbYos60TJqTlQTHdwioxCqTkooQMotexawfJbMJWIOcbsWClKknePmHmjJ4hXqYWjdLW6Rhk4ybaE3jcSpglMwKlMOFahqKxIdSBRSDQjlWImzTm242W0NidQCszhquZxeWBmSKgjPfietk9RMxMfogDQcqCumnPFf+Sg2iXOaaCJZfCMLFsDqyhC28CxPnpE4N4nEU71Fw0ylOSpzXHqKtR+cb7x9ccDHW0OC7EaCxPmrHAx9RHYys8MUS2ndPzv6zF6ih207p+d/WY8/wAR2iacNuz6puTxWR+DL9gQ/hhcfisj8GX7Cw/jyzUEEEEAEEEEAZl3dPEZH5lf2pkY/cs4pMxAV3BGfOsbB3dPEZH5lf2pkY1dh+c/2n1iOlF2mn9ysvKy0y7TMahVKg6DoHSTCZlvdSVKrUaf8rCbNbUVVVsWVa0OWvRnyw1tLhnZgcicq6dEexKppozEo67DwXk3BHXChebcEdcR1Y9rFOo+S2VcEmL0bgr1woXq3BXriLBhQMR1HyTlXBKi9m4K9cLF7twV64iA0KDRGd8jKiWF8PwV6+2FC+X4K9fbESGj0NFc75JykuL5fgr19se9+X4K9fbEQGgxQz/cZUS/fl+CvXB35fgr1xEYoMUM/wBxlRLG+H4K9fbCTfL8FevtiLLR4WhnfIyokzfD8FeuEm934K9cRmKPC0T1HyMqJNb4dTVQARoIrFkuq+VnqcRwuoqwJyoPrCur1RRi0INOSMGOwUMZFZtGtmFoWa8b+ea+1SRiXPf3VASTyKACfNWIfvm3BXrhdx3n8km7YERtw6FXUOpxIQBQ6BWleSo1xHF6mpOZzOgZ8wyjRhKUcNDp09Ev6w4p6seG8m4K9cJN5NvL1w1lzcNaUzFM46Na2OeVc+um/wA0bFVfJTIuDr3xbgjrip2pqlzvlj1mLHPnlyK0FK6OUxW7R9b/AHRixk3JK7O9FWufVtyeKyPwZfsCH8MLj8Vkfgy/YWH8YTuEEEEAEEEEAZn3ckJsEkjQLStTvVlTAK+fLzxhsfWF6XdKtUp5E9A8txRlaornUEEZgg0IIzBEU1u5JdxNQJw5BNNB0isAYEI9Eb34I7v+39L8IPBHd/2/pfhAGDCFCN38Ed3/AG/pfhCvBJd/23pPhAGEgwoGN08E13/bek+Ee+Cewfbek/6wBhwMLDRt/gosH23pPhHvgqsH23pP+sAYiGhQaNs8Fdg+29J8Ir2yXYHZbO6LKMzdBi2Jw2ggD6vPAGbB49xRcf8AxSTvv+oe7B/4pJ33/UPdiLk2KfijzFFx/wDFZO+/6h7seHYrJ33/AFD3YXFiml4SWi4nYtJ33/UPdi23J3N7FPs6THM3E2KtHAFQxXRh5IkgyAtCCY3HwU2DfnekHux54KbBvzvSD3YAwwmEExu3gosH23pPhHngnsH23pP+sAYQYQY3nwTXf9t6T4QeCW7/ALb0nwgDBDCTG+eCS7/tvSnsg8El3/belPZAGBGEv9E8xjf/AASXfvTvSnsh1dvczu+RMWaJbuykMomuXUMMwSuQbz1EAWm6UK2eUrChWVLBB1EKAYewQQAQQQQAQQQQAQQQQAQQQQAQQQQAQQR5WAPYITigxQAqKfspTFPHJLHSWY9kW7FFZvafJM5sbZigI8wiGSiv/J482iJXb7Pw482+z8OBYitojwyIlflFn4cG32fhwBEGzxcdih/9bDwXYdO6/mITbbPwonNjs1CrLLatGBPnFP8AjBEMm4ITigxRJUVBCcQj2sAewQQQAQQQQAQQQQAQQQQAQQQQAQQQQAQQQQAQQQQB5BCJjhQSxAAzJJoAOeK7eN/YqrJNBralSfuj+Y5zqRgrstGDk9CTvC80lZZlt5dXOdURb395JHn+EQwYn6/T/wDY9DnhDojFLFSb00NSoJLUlu/vJ1/CPRffJ1/CIkM2+IN1yf55ojuKnJPRjwT9lt7zDuVy1knIdWmKbe91OJruXJxMzZ+UaxPSLzmIAu1oV1YGKHoNc4b2y2bYc0I89f8AjGqFaKX+mcXTd9EVhrIRpaEGz+VEy0hSdPWOyE/IVOv/ADoievT5I6UuCG2jyo9EnyomRdinX/nRHpujeNfPT+IlVoP1IdOXBEJZWOhotGxSwPKZ5mOoZQMJyBINQfX0wwlWPAc+s0/iJqzW4otAinncj/jEdeHI6cuB+14sCVIoRqrB3xO91xF2q0PM+kqCmjCWLfqNBTkpDcTmXSpHX6ozSryjLR3R2jRTWqJprzcaFr/up/Eey7/oQHQgazWtOrOIdLWBp/gR2+VrDuJP1J6K4LbZ56uoZCCDrEdhFSkXlgNV84Og8+cT1gvJJuQNG1qTnzjfEaadaMtPU4TpSjr6EhBBBHc5BBBBABBBBABBBBABBBBABBBBABBBBAFW2cWlpcpCppV6HIGu5J0GKYLxc/WH6E92NRtlhlzgFmoHANQGFQDSlYYTbisw0SE/TGWrQc3dM706ygrWKALwfUw/Qnux4b0dci45sKdkXKbc8gaJSdEcTdEni06I5dpLlHXuI8FVF5Pwh+heyDvlM4Y/SvZFnl3HZ0FFky1G8qgCvmhfemTxadEO0lyO4jwVXvlN4Y/SsIN6TR9cfpA/iLb3ok8WnRB3ok8WnRDtJcjuI8FMe9Zh0sD5l92OJvWZwgP9o92Lybnk8UnRHneaRxSdER2kuUO5jwUU3xN4ynMo7I8N8TeOboXsi9d5ZHFJ0Qd5ZHFJ0Q7SXI7mPBRDfE06ZjnzA/xAL4mcN+j4Reu8kjik6I87xWfiU/TDtJ8odzHgozXvO1O/mpHN73tGqYw58PZF97x2fiU/TB3is/Ep+kQ7SXI7mPBn/fW0a5vUvZHvfWbw+peyL/3is/Ep+mPVuGz8Sn6YjtJcjuY8GfG95vDPQOyO9gveaZ0sY2zmSxoAyLgHVGiyNj1lOmzy/wBIh5L2NWQEMLPLBBBBC5gg1BHniywsk73IeIi1sTMewQRvMgQQQQAQQQQAQQQQAQQQQAQQQQAQQQQAQ3mwQQAxeOcEEAeQQQQAQQQQAQQQQAQQQQAQQQQB7HkEEAEKEEEAOpMPFgggBcEEEAEEEEAEEEEAEEEEAf/Z;" vertex="1" parent="1">
          <mxGeometry x="220" y="470" width="99.23" height="75" as="geometry" />
        </mxCell>
        <mxCell id="jvmUse2JobH03HYmrhWS-16" value="&lt;div style=&quot;text-align: right;&quot;&gt;&lt;span style=&quot;background-color: initial;&quot;&gt;WEB:&lt;/span&gt;&lt;/div&gt;* html&lt;br&gt;* css&lt;br&gt;* javascript&lt;br&gt;&lt;br&gt;ESCRITORIO&lt;br&gt;* form&lt;br&gt;&lt;br&gt;MÃVIL&lt;br&gt;* layout&lt;br&gt;&lt;br&gt;General:&lt;br&gt;&lt;br&gt;* librerias&lt;br&gt;* img&lt;br&gt;* framework" style="rounded=0;whiteSpace=wrap;html=1;align=left;" vertex="1" parent="1">
          <mxGeometry x="199.23" y="555" width="130.77" height="235" as="geometry" />
        </mxCell>
        <mxCell id="jvmUse2JobH03HYmrhWS-17" value="LÃ³gica del negocio" style="rounded=1;whiteSpace=wrap;html=1;fillColor=#d5e8d4;strokeColor=#82b366;" vertex="1" parent="1">
          <mxGeometry x="374.27" y="477.5" width="120" height="60" as="geometry" />
        </mxCell>
        <mxCell id="jvmUse2JobH03HYmrhWS-18" value="&lt;div style=&quot;text-align: right;&quot;&gt;&lt;span style=&quot;background-color: initial;&quot;&gt;WEB:&lt;/span&gt;&lt;/div&gt;* php&lt;br&gt;* java&lt;br&gt;* python&lt;br&gt;&lt;br&gt;ESCRITORIO&lt;br&gt;* javascript&lt;br&gt;* .net&lt;br&gt;* java&lt;br&gt;&lt;br&gt;MÃVIL&lt;br&gt;* java&lt;br&gt;* javascript&lt;br&gt;* kotlin&lt;br&gt;&lt;br&gt;General:&lt;br&gt;&lt;br&gt;* librerias&lt;br&gt;* framework" style="rounded=0;whiteSpace=wrap;html=1;align=left;" vertex="1" parent="1">
          <mxGeometry x="368.89" y="555" width="141.11" height="275" as="geometry" />
        </mxCell>
        <mxCell id="jvmUse2JobH03HYmrhWS-19" value="" style="shape=image;verticalLabelPosition=bottom;labelBackgroundColor=default;verticalAlign=top;aspect=fixed;imageAspect=0;image=data:image/png,iVBORw0KGgoAAAANSUhEUgAAAQcAAADACAMAAAA+71YtAAABjFBMVEX///9ahMNGbqkwMDHR0dHOzs7Pz8/Q0NAbGxqVxaP/31QeHh3c3Nzn5+fg4ODr6+sAAADY2Nj4+Pjw8PBIcq8ZFxH/4VFNfshWf8Xv3mPbyXhPgseOvaj/4kwpJBpBaKkzQlkvLSmVrqY4VH5SerUqKitDYIyZyaGHtaQuOUwlJCZ2lMWCr6oxYaMPDxBoi8JIdritra2UpsbU2+iQnrauvdm5uLigr8uCmcBRdq7Z4eT/5Ud9qrJmgrAaEwBvmrmwuMheXV7Q2tNzeXWIjolOTU5+gomVm5cAAA64vMNDZppETUclHyRubm4WHBmboq47TmuRnra5wdBkhq6AnbLFv4nLzIPu1WZceKTmz247d83Yx3qPp6qInau8t5CCnMmlsZ69y+Kqvd52orUYJjssNy8ADSBHYXE/Pj0YKSyClYcAFhqn0rZrh3Z0mH9uk8hIUVcQIDhYX1onO0EACiRma3YYDhZWbl2VnZY9SD9riYcxNkC6zdUeHC0AEwBTfqciRXFweowvR0NRVl+fL083AAAf/ElEQVR4nN2di18bx7WA9diVhPethZhWtmUCC8k6CK0ACUgVA5KFZV42uK1zGzf1bXCc1kkouU7qgm9vmn/8zmPfu7M7s1p8+7vjhwaklXY+nTlz5sw5M4UCKFKF4zRYkatcVYQVDVQkWAHPVBRY4UFFB491UOHroKKDp3jnas65Gr2NCCoyrIAnKlL46iq8WuG3Qel0nqxtgAIeOxvPwS/q4DkZXIWu1vxXOzfBU9yE2wT3JlKaoFQK75dDgdPG3V6v32+3241Go1gEf1GB1Uaj3W72+50n22Pp/y+HKrha2z4ttWcbTuMJBfBY2NhehRyq75cDX+HRm4iggt8EVNCb8JUKrzgV/Caggt4EVuyrK1V0C+AiLXB1FbwE49S48fZGqZ1CwA+j3TxdG1eUyE3UiTfBxd9EJb0JCl+QQFFgIVek5ErK1Qp8GN9fYGDgsdjcOJEUSc/jJpLbEqSVzrqCxaVCz1rnrfsldgYei/525AsP3gSjzFa0wNUcllnumvveVmdhNjMEG8VmZ6ugVON0GP4y8tBh1WrVhgkq+E1ABcMEFfwm1Sp+E1Cxb6FawQoAVIhXg08+6WfoDvFCsatxzk1UgjdRYWyCzcG+mgMVwEHTNE4p1Ot1DlR08KjDCngsKLACnilI4DUarMjgUYYVEVQkWIHPBK6u21fXdU3k1zbzgOCg2OBlypvQ3Ztw2hJoguhcLTtXI10Oew/vjBc87nscqOC+B4riVDBrUDBrUJyrK7jv8Y6q5nmp3lnIjwIm8XTMVW0dZn924Ca4yE3QNkHhC07vydV+4DR+LZcOESrt/pir56/DrsuOkvmNdv4QbBJb18gh0i9YhApeXQ2IZGf6miggEk/qhJuYqF+IoChQpcCK7q8osAK1jQQe5UBFBhUJVpyr697byCc564VwaWxuS7E3oUfa4jYh2pbA1VI9OG7ivhcZdHhv0HHsKG/cDA5ZhW7/urqEV9qnW/6b4CnGTX8TtEATwLh5DXbUdkYKjCLUXrtWO4ooDxU6eVBOs9mOs08/vM92RWNzSwYfmZ88yLIsKjooor8CHxVYqet6XQKvkQMV+Cg5FaWOL5L1rMIwe//2p7+9yXhR+6nk3YTo3ERME8BjXUluglTPcbyor2ScSDTufXrjg9+xcgAioVONF5X3a0etZh0sG/dufHDjg8+ZOQCROKn/29lRvcw2wwrAcOOD32fgAPoGd712FOP8ospNYED+HmDIyKHY6PMcwZhjtKMALQ6+qg4r8FU6rCCXMmcjljhHXEAFYRIdl7J9tfIss+l08/PbNxCH/7gZX1Kub8vRJtSdJugUTQDTeQ7bDzzBfuA9mXMGHU/mnHETypycXRhsDKD84dex5Q9pyre0qlWJJlBsExz7wRk3kf0wuR2lX5WyY/i1g+HGB/Hl9q/TRK39RMvBjmL0T/IR/6TWm0AafutiIJZPv0gF8VzL4J/kg/7JSf3V+vEEGP74aSqGG7c/TDVLGqfKZP5qRSkEvvAM6xfXjYGGQ7HxpTLp+oXTezLaD5Ng+FN6p6DkAMZPLlGHUdtR1QiHSoRDVI1qWWcUEMNzGmmg5IBBMHPgw3ZUpF9QrZFoT7JjmF2jkgZaDsXGfS2ky9n6RcDaYvQFr2fH0HhOiYGWQ7G9nTIX5OOagKdhk9kPqxN4nm5+/kHOHIrtdW0C+yEzB2lrEgfcNXAotr/QrtuO4iN9r8rFYmjMttvthZV7dlkBP8XGOzSO8+4XEMSYI9tRPCE2geORHQXdNtBJI8VXkMPJX1GcymakaY32SufFi9U6du7gUq/rqyedDUgj+OqbH9INFywcitMSUxNQBfmtZHu8qDrjheeAdMYLgu/vabBd7eKX66sFctFXeyvBFS46K4qNQ3EFfOHhJlRJTfDcl9ntqIDh0FjorPqFgFCk9RX/VTSTC1YO7Y40kR0VWaCoJq4NFLaa3mfPrryggIDL1pc+obj5OxoQTBzA6MmFm0AR2QDkAS3ywMVwtMgDF8PRIg9cDIcVtKbuVNByF6oseLKw8oIWAip6x5OJm7+nGDQwh1nqQYNPbUKwLWi5S8tmR224X2q7x0QBvZ3XOxoUIPC8+zef3Kck0aePTcDikt2OOnEb0t5ixgDKPden+/2v0kDcxgsbS0tTK3QcGr33ZUfprv+prWTBAEA07Y7V2HBUxK8I5XMsektTU1N0HIptOQuHDP3i1P1ENtXgK5ulEiYxa4O4/fRmI74UXQ60IPpZ+oWzGC46i+GEhX1NFLFuEb0hcyUrhsJJs2STuPnFbZpRAXGg7BqwZ5CaoODQLbstsILDAtBdsY2b3oLNemYO9RIs05DEzT99ms5hFnFY+ohy6gnvmBybkIsd5fWKYuM/M3OAHQORcEA4HGbjywqWh6VP6ECcFjKuZzl2dSViV4dh+meZ2TlgeSjhzgHtqdt/RFbCn28RytQUC4j2id+uppIHZ0oiR+YmsZOU+qnv4/qZOSD94JK4+fmnnyIO3y9NpZSl31CB2ExoAq7ooXlW/Ly7UIifd3PH/tuYfpARw+5X0yVfWZj94vkGFIdbaRgAiD9TuSvXqpF5tz1eRHIC+Czx1QGnw8JnD6hnFv5iqR8HOJTshITZj9I5UIJoX6sdxa0Fps4Ld4waz45hpM6EOSCFSceBEgTqs9dmRwV9UAt3ymV1oLNR4M/UWpQDIkHHYWqJZqoxrYSbkGxHoVdFVsXtxXB3YR+8HCaY9YLOF8ihbLaGDJ1j90Jt1WI5ABKUHKaW7lEIxIYWjE1ANkAVSXzVTpbTYQU+o3CYA906TkUPLWwjDoCEekjXO+rjV5ACiUOpSclhaonCsGyPfQv7KWEBbHFB3JOQj9HmUC4bLXPAp/QPyfpFxRRqwqQcqCzsDS1DnhrNetZu2EMNORgOilrrbGRxsV2kvmsNXjoQasLk8gB0JYVA8BWG9Szyqngk22w7rJ4Ah7mvX5XdYgot9Zudnb/sWZa1u8vvji1r7y87D/6qugwwhsnlYYki7LTxhDoaQJFY4kD64U9auHNwa2nqslwTPBZlwzBNQRB+bKm4tDwEEAL6M7F+oJpwbVLlVjLnqUWX8YD98Hpqav+r7tgoR4tQCxUbQg56ks4TMbuaux0Fp+WdyLLUwh3z24++e9gtFI7N1jctMgfYF4SaDSEH/UCFoVi8FxNmWolwCMaJ1V1tWolwqMI3qTcjn/P9oWm+O6gBDnvqbkGrRTmADiIgBDYMjEKYuTsRB0pPZbEtxoaZEnKvKeNIw4MmKCvKx6hDWNZLOOMywhwEX4/A8oB+EGp3tpvZOVCZk6g0esEm5BFfzUW0JOAgbb01YYvN8kulIEXlAUmDIw+2LAi1GZVfz86BHgPUlIW846u7McvbK7KoDGy1oF48DOsHtzu4QNAvVHNX7sVz+E2q/4EJQ7G9ysaBIt//eczi/Yoiykr3DI+akSHDEwXBU5W1ljqSZC1eHoBALE0BFPZfX83lQ+mHsUujA79KnsaOil8VD3hrkJcqplsUp/8kiuAp66wWO2666sDRDACCOtIkUdaP4zmUNj8hlEwYQMeIbUuM640yL4mL6xbFBXVX0gAKxTpvmXH2g2D3BfQAIOzviRJ8/fBvseMFlIjY0r6JNcfSJ4xR+TAyxG6CY0d5eUmOHcWSpxYzWkD74chSZCQTlb0zVTCNIAeXwQw0LA+tKvhaREDiQcQflVawBl26xUYBlDUtxzy1SlU7jfsQML+oXWgoCUoWdbE7PJ9r1UzTMBCP2kwLFEhg7nJoVZAAapq0day2CHZUGodb7IlPCxplnlr8wj5eDLcrUPajRlTRnm++G2lQJqBUyIrEbVujweHOv344av3XN/s7b0Z7Fi9KCgQF/sqS9PcjlWhPpnGgtZ98pc27bRGdEAc5JsSBYEeFk1lWY2Pesf/BbA14HQq8hmFI8A+cyEmwhoQAcQJ6QRuqaoIfJoXDswypT42rXO2oHpGDCcYKo3U2HMsKVMqirIlYOuAjEgL0CLS1trePKWThAOa1z0rO4jBL2cjVjoobNREHYdj9BWoDs3Z0MbQ4GK8mQX0BOMDGw38SGI657qDseqMiHPCgsAyLPUBEQGw+s1cCWUn088z3r8eHjIJ59z54je19MEyh1frqcPhFt7uribBnAAxX4+7x4Bwqyxg/DGx7aXNzrdNZv1p1ytV6r9Ppl0qQSaxssHFo61WqfkGlJ8dEDnB+ZR58deCOlsgLY48TjidmJuSCAPIAEJT6vRdbCsnXXVe2XvT6m4BGBASTmmgcO+pRS9STNONmvPUA17PKwqh6+OPU6+8OymbYkor6YWx7AjA6772gW/aor/b6URYsJE6xxOeR7x8314Tl+4EJFIP509LU6x/NvWGM/yHgjULi0FKP3nQZw4muOqUwCno1gRa28rGjqoRPXdHvQiEwbi19p44LhaEZx8HnhwEQ1DcZFgJBWe1kJdG05SHFrqaZZ0mEyPoVaesCaoaDjw9q4FOsMIeA6wHU1DMr07owLif95Swk2ltU8yxMK3neTcowWJFEZahi9bgvVqLzTcHnmgQUutkhoLIaIjFNQ6JxzOWUp6bzhAxK6H+Q+DOkF4xWLcwhoBtaqjUhBUSiFOwdNApzLS87So+3JovFUhfNoq3LeP8DFgQsFeogBwqw9Jg7x0Z6ui9dvj+Rw4LKo/13pO6Oakb9UY5AgEouwoDLangQTSPR52jsqMSd8uwoKsKwCeyolgWsRmg7a8cXYMod8T8ItgdGzA1DobAVsaySSTwq0OyzR2E/6KReCOYXrUMNTa5kUd8a7735odUSHAcE9D8ge/JhWcsRQxyIRBILBZZ1nAQOCulTkP/haAikAUyuUQeRxCtrbzjYOf/4Yevh33YGoz1rDMzXXDEUCi+WIyASZh0wFj6XPDVifqLtf1BHvIRmlnCSDcdlMMlyTBL4c77SAMtplAN56GjLNOu86dnwSjWZA/TEnI3GooKcD9jrYNfwT4wBVBRlNUYgiCRmrxSKdX9YkuNAqnwSBxPbDWatdj60eF1SoMMBYJBEDUkI+Jc7hkKB4PaP78AdLhc7iot3ymEO5lAa+/wP6r8OR3+3rCseOukACE3jrb33xyGWRGMtn3x/bjuBgwrebyS0vEAQFAZSa/k9ENfAIcGtFyHh55ASJ5YYN6gRNyaB4yZ4+cWF1g0b1T67WpXz50CUh5iho/FEc0MfuWDcIOfFDVLEka4ncCgbozcqIDYyjcvL2Hl3nrakU+L1JEFhNrZzylMjciguQkVp1HYLhYH5dmrqp7j1LABCyhmDEh9GQiDRWM8pLojMoTg/h5psDVvmP5amPjoIyYM91arl2zP0l6kc/GqCjgNF3kECh+IjZEIIZtnYX3p9Eb++aZZb4xwxSC1CWBGBBOKQmndAkYdCmm6iMv3xnD1QHBwEp5x2PEwNTsrVYW4YuiolB5dEjyYPBRFOzEviooFyARCLl3PRwSIoD2DS9SqfvlEfwOVRSg546Gg84XLJU+NSNvRaACTuxKCwnXI1xKFsqCxh+aTShavEDBygwgQc6PPUSBsSw2fGKcvtC6XpR4/LERSum9oeTs13xxNS2H2FV8UYOAASwI6izff3p69G81ivUsMOwKcBFHfvzM3NBeQBuyZdtVE7GE4w5+ruu+H6LBxKzY4c3mM7ur01jR0VvxNMCAREMf1o/vHdsjGHy8zMzGeg1MxLj43Z2sk2dMh7vnh9Rg5XOdlRGsXGQI4QTk+3p0uPHj1aXFycn58HlUfT7Xl/jzFqD990GaVC3Lt014kTwnEJZXk1JzuKap+o0J1NQyT4d9PzIc0BUOwP09JWnLJlDUxVnfEgsMuDmFOeGtEvFygLpPvAHIK2hWHW1JeHe12RPIbU67vd4YU/dcMJTWaVB4U635+4LwoKC4hukcQEAnF4t7N/UA4VAKOlnj3YGe5Z1i7Hyahw1XHX2hs+QNkr/vQVLwyTkUNpl2ZfFFhS8v312GC5mELmYNyaev1tNMQS0UAREz+2Ai6LYPaKu1juBGizcdByyvfXkw3KNBCAgzGA0cFflY1WK27lKzTUhuMFBPf/TP3inwzrWYn7aBHXs+hAAA7mt1NTU6/fCYeK9CZeKmI5CPZCkPcny7i5wbHk+yftq3ZCvzt1zA3CfvFuamnqu4NL+JmvYD4bAYbga78/Qt0vDwKjPdlck2j2VaPJUyM6KGNKjLZ8Bt1WX58fGIfw3QZGa9QdxPjxyvZSYC3QdjefR/DiCNg4rBaS1y8Y8v1ZdliMgGiuH5pQHYJ/SB4EOM3Yi5UIwVsTxQIhOJM1d7iAv299zcBheauQV54axxa0GObQk/Zxq80LfnfHbEEFvKUm6odAyoLXW3C19ZaQvhHPoUDFgSbfnxQnRgei2RPltxgEGi/QVgnV2I6BFYOrCXwR+64NBTD8txafzhNf/olHAj5lX1b8qpR8HBYFAUswWrYH5q47XruNt1JBehA7froRE44m8Cd9uhh2JQYOzY5GlY9jS01yvj/zTrR+EM0eXO4deulbhvoNwYzw5fUJPhw1d/ys1dRLUSSkd8VzeKHlF1+tM29F69OWgIMGY2bOkiyHgDz4U159I2cNBh6O4OopA4dlJc88NUYFEQDR3JBQwL209y6NhBBotpfeZktDS93hFY1NHkrocNz0fkG1N76yxqggYHFuZPp/LAkFAUji8L+TSXgpv24QsmdOq+ovXZzxov9MjyF0BABxn3+qfH/yUi8FiOl5tSvJdo7KXnxsXUge/NajE2I1N9xVUNiNvLVDn77RXKsUQnbUJOfSEkNBEovrh1EtFCyDEpPGgyMiCi/o1M2Lx4l+Z0Oc8gNjj3hDpbcnm+MKnf1Ady5MfJ4aHQg4v/hxIIkayuyD/6zRUSsaZ1i2XdyCz3pEU/HD410FZ7ZoYF4wUlnmF8tuvl7KuTD4XFp4tg481BU2H53lCpUHOpcW2VGalkVBFLG2RH4Ys9xV7IQlSELn9wavjmqmEV0Cw0MGjrUzzocWp8MEHwARJvgo3ZdM6zilDbcJTmSD5pwTpDnnBGkcfb5/1k3cF1z/ZOsX8K2ijDUYaSiJkiR2rZ8Pv1JbLUEwYTGMlmq7Yh6eHw6tMUz0k2U7ugj80ceXOM2NmkPzRd75/nS+uZji+mkNmNeHmmRHkslIXyjauGt9MRoOR4eHg9HwudUdcxJaccWxiKKI0/0kpXtp+2vpOSzX8873f5qVQ9HzVxutc0uW3N6B1YVop7OBwQS3HpOy4xAd/apox2eYgsAy7+4X8j6XlpCiRVN8fntDOLqwRN1uqmY/yu7XjgJSZTzIomeQSOiSdeEsYDD5H5pwx1S6cwZlfGhjHZ/V6K94507CGypkGzFgWYQcTNVOhTcE9Xw4llB0oSsRmi0USFI0EatFZI4rSnXvwnNcC0x+uSbvnDsJ399ui4jPnQQV99RKlnNpM5lSLgfhZ0UfOVF1hll7uT+w+F1dkbAKtMdUuycgDjDtc4s/Hsz5N+BK3F4mWja1/M+lJeRw0nFAeZ6Ffd8oaRhC7ci4GIysLicqAAgKQIUqAtnBWrc7GlyGN+BilIfmNv0+OfTnFG9MwgGloXxrhncNsbM91da/LnYO7bLz4G+xeZ/uPJxaHpbhwgylPNCfW32VVSBgvziDHwmaffiWMNMyYGnh4rXf9seF5ly0HPo6xbnVuEI9XvAVRi+lV+B4YZx3+XPz7dRSKLgwMr+IFMFl4XhvaeWhuX0959JmtK2LHRhTZ9RqhvkXuJnFARg7VJLf3t8ThPBSloOEksOmuw9nvufSEuPuk0tj3bL3Vjr4DnD46OBgCMyR8C5sNgfb6RL01Qo+5QBr6s80HJo9Zg7p8wtYIaV5p3HoSUO71T/AfmG+ArdSeENI8fP3h8APPgzD+O3IwqUSbUJivj+YbwJ9geebdWe+Wbfnm/U6mm9qsLKb6SziRk+UnGzXua9fmcYO/OhRnL60Ex09EHF+e/VQIW27FBQHZ+7sbwKYb2oirIganG/iyAYuPG4SDkN3wwKeZhGIRk/WFMv2UMP/BdjjSPrBU4veJlyCDwbEINNwKMU3YYJ8Pc8IyaQhAAcwVnGv3BwNw7QswvqF4DIIOO69RYyWugeGPgoOaGpxXefScllmnVAeoJd2qLptNwXS+kVN8HcHb2nT8dA9gJmzEg2HSBOS/ZOMZ7lm0RCnCvY2aIfJUSCB9U3PT+2KRUt920UGEUW/aG7rmc6lTd1nz3b+Z5ltzQ8UPK+W+MOHiY575/sX/G5a24ZS1YuuguZikvY4fdy87nNpM/ilFmcACM32sAzNBMe9t7YdGDzh/hlne5yCXbVKN91fvXx13efSvmBXlYtzNQgCZ3PKUndwVCPHwzhGlLvcDT2Wv+zxiuOdkkZquj25kvE8FCo7Cod+si/xgXmW+WpXEp0dtRRpPPxBrcV47oPRMAiBej7souk4cs+Ievcdhd8exn7ETJGS7Cia+Afed26UyL7mi/xR6hC5H0W8w5qs7HaPL14dtQRnVz5PTwo1O4Dw1cXQ4hW8Px/qV6IiXtDkHTTvc+/hXNoe665/iENZOLMk7IO191yDm8/x1t5g5/yvagvGSwoC9jv8sHM4sixOVDxwqEhbI/uYgDQO3Hs5T421Zyzaftra2bGIv1zbTY2VJxy2RK7ShWV8oimSz2uPNmfDO7Tpu4e2rzZt3r18lYFDhnNpSdsHpXEA9tPDQRf1dZwMrzm+SKg5JFF25cVZupBdt73UvaDNO2h2CrGmYHq+P7IpgN2hByuKXYls+M/oiFj0xdsbNePQ4nRRchYq8EqG5o6rSABEzdm5ED4r6ePBkZODQuGHiWlLHvn+ESOEsDtpGgf3hAih9cPI2pVkVy6wEtTs9R0sD8gARWs71sDvsU6Vh2WeCzbheuwoqD6qEtOmf4iDob715hfwhIizHTAaaBIOanUUouwOrrKk6CK/9+bMn3hg25hJHJpPtJzPpUUcCOfSMgWOQQ7Gg3pB2Q9YDHCfBGBbXgyGx0BD8khAgJSCh5Nu1xoNzoX4xAMhiUPzvuZ+ld75eqk7AfnOpUVeCph/YXspvPwLlLzA+XIWuHrM4QfJHFpaoV7g47ySMO8Ams7+nRpR8XutHQjY0Erg0A80wXG0BJtQt70zdlsmOJdW41mc15CDCr8IuWWCb5g0uSjH+6vdUEI3UCZBHppjtwmM529mPdeeIeYacjDhriCj2hugi49YOPjD7l2PJZHD8jaX9Vz7rBy4MbWuhLsjlI8G1puaAC+GIebGQSRLyc/B8Vt7YuAG2yfJQ3NNIyjCazmXFguVRB87hlLhDcHAAfcfmuWDn259tx/LIbpZo+eY8eSBpBw40kSK/lzahHxeNxk2uOwnP6EG4WTCoxDzC8P4CZ5fECMR7mQ7CCMUXDvzKB7DZvzCXaAJxHxeTMseN8W4/G6iO1ujd1+7IPasX8yy8Q/A4XWMD8LnfvENDwEnpTAz84igHfjg0H+959L6+552Sg3C2SXChF4H4+I1QR6cb99VEEHJgH3ikogh2oRrPJc2AJP7khrE/B1fe82fPvruVRRD2QsgdW2mYAqC8BkxlJbnQqZgnufS1iPb1wY306j3qUFs+rfLII4Xbo8IrGE4v535bJGAYVrDgT9eW6JNEJP2A2H2RwWUbYWjB1FcNOI3DgnIgxPt4BMKB8TMZ3enCQPmpuQ0Iet4kdV+cPqexgCiOD+XTCLopvaPEYgCSTM0T3dTFMD12VHum3DPGeZcC/OXSSg8+8lnLaAOMTNDpFBq9rXqxBwy21He9rUnLJNPuIUKEUVQHzjDxszMZ5fzJfIUk2ID2gzn0trB16FzaeucszkbrDibs+EYbnGNJWIIbhvyeO5OLAtfKJTXHQCERwS9AMvy00gT7EDy8Lm08U3AIfUFW2qo13Hi0hJI5yEQQADt3i7N372cmwvDEPziALdVmTEeL5YSIIDS45wmuIkFbhPscTPnc2kT+h7Poi1R6hbcLQRuJ3N5586cW2ZwgdvKfCZ8/Hj+UQoDONGOORApux3F5J+MDQt4yrKq4bRiGm2e8mhxfv4xLHfv3kWP84uL0wvuvipJFDbHXDg2IdIE+nNp4xfDiQfUxlbqPZa+EWrPdKiktd/BcEq/sJ/mr2aKA4mEBfiu1sYLDH2D8Zyg2LLc0SQGmc3rXNq0vsfpHRZLYlIKoE/YB1NT6rC8zqUNDSdYFwevrpboRWJCEEAYOPsmEsY0eg50ceYV0lyuEpzL1dcYRGISYSit0s6JQ00gnYeCX0Uf/5Biq8mrz+hJZFUSzeaGs/W+/yaqzk1Ebd5c46sp+9527Fl8OfaN5f5W8oJ29vWsPDkU6hv0IpFBGDZXs+vyyc+lTRyT+OCYJI9PqUmwUmhuE2+CC9wEY7xcxOEU3VUo6q4KbqsUd/XWPVoSLH2jubyOPoHyJkhn7GY/l9ZTtsHxolIhqeo6tUxQg2iW1mNvgifeRKAJuZxLy973qhogQWdO0FHYXCM4pHOxo5ji7SPb8CVeDSzM7QUqoUifUDU3xk6meuQmKlT2Qyje3p+nVqE9l5a0LWM9/mrvbQr1q3s0QpHYN5rL/RPvZFnam4g0gXDeopZ0Lm1mOyrs86pUlfr2SjoKIojm8uY6EIUJfYf/F3ZUtO8VlLV+Koq4vtFcfrYtsU8g/k3sqCiHQlXjj58CFkkwgiIBDyo9XRu7n/1eOET6BYtQ0fiCwSvARfpVZ6HdniXC8BA0NzsvFDCh5KXITZADXibqFzBqDysZUMFKxq7AnZrc87vFcFiA5qype1cr/qt152rFuRpuniQV9K2TtX6x3Y7KRqPYgKcVbz7rba+ioMI65U1o6U3wbkKLCQugPZeWvO071RoqGJicq3HvA2pPezE+6Wxs3D9dKS7A0r+/8aRzcrI25qvuTThXpw3edPPu5Pzu/wXs1wbxiT13NwAAAABJRU5ErkJggg==;" vertex="1" parent="1">
          <mxGeometry x="580.68" y="477.5" width="71.5" height="52.2" as="geometry" />
        </mxCell>
        <mxCell id="jvmUse2JobH03HYmrhWS-20" value="Motor SQL&lt;br&gt;&lt;br&gt;* Mysql&lt;br&gt;* PostgreSQL&lt;br&gt;* Oracle Database&lt;br&gt;* SQL Server&lt;br&gt;* SQLite&lt;br&gt;&lt;br&gt;Motor NoSQL&lt;br&gt;&lt;br&gt;* MongoDB&lt;br&gt;* Casandra&lt;br&gt;* Redis&lt;br&gt;* Object DB&amp;nbsp;&lt;br&gt;* Firebase&lt;br&gt;&lt;br&gt;&lt;div style=&quot;text-align: right;&quot;&gt;&lt;/div&gt;" style="rounded=0;whiteSpace=wrap;html=1;align=left;" vertex="1" parent="1">
          <mxGeometry x="545.87" y="555" width="141.11" height="275" as="geometry" />
        </mxCell>
      </root>
    </mxGraphModel>
  </diagram>
</mxfile>
